<svg width="0" height="0" class="hidden">
  <symbol fill="none" xmlns="http://www.w3.org/2000/svg" viewBox="0 0 24 24" id="Arrow-right">
    <path fill-rule="evenodd" clip-rule="evenodd" d="M8.29289 19.7071C7.90237 19.3166 7.90237 18.6834 8.29289 18.2929L14.5858 12L8.29289 5.70711C7.90237 5.31658 7.90237 4.68342 8.29289 4.29289C8.68342 3.90237 9.31658 3.90237 9.70711 4.29289L16.7071 11.2929C17.0976 11.6834 17.0976 12.3166 16.7071 12.7071L9.70711 19.7071C9.31658 20.0976 8.68342 20.0976 8.29289 19.7071Z" fill="#101828"></path>
  </symbol>
  <symbol fill="none" xmlns="http://www.w3.org/2000/svg" viewBox="0 0 24 24" id="Arrow-left">
    <path fill-rule="evenodd" clip-rule="evenodd" d="M15.7071 4.29289C16.0976 4.68342 16.0976 5.31658 15.7071 5.70711L9.41421 12L15.7071 18.2929C16.0976 18.6834 16.0976 19.3166 15.7071 19.7071C15.3166 20.0976 14.6834 20.0976 14.2929 19.7071L7.29289 12.7071C6.90237 12.3166 6.90237 11.6834 7.29289 11.2929L14.2929 4.29289C14.6834 3.90237 15.3166 3.90237 15.7071 4.29289Z" fill="#101828"></path>
  </symbol>
  <symbol fill="none" xmlns="http://www.w3.org/2000/svg" viewBox="0 0 20 20" id="microwave">
    <path d="M18.5714 3.57141H1.42852C1.23908 3.57141 1.0574 3.64667 0.923443 3.78062C0.789488 3.91458 0.714233 4.09626 0.714233 4.2857V15.7143C0.714233 15.9037 0.789488 16.0854 0.923443 16.2193C1.0574 16.3533 1.23908 16.4286 1.42852 16.4286H18.5714C18.7608 16.4286 18.9425 16.3533 19.0765 16.2193C19.2104 16.0854 19.2857 15.9037 19.2857 15.7143V4.2857C19.2857 4.09626 19.2104 3.91458 19.0765 3.78062C18.9425 3.64667 18.7608 3.57141 18.5714 3.57141Z" stroke="#101828" stroke-width="1.4" stroke-linecap="round" stroke-linejoin="round"></path>
    <path d="M15.7143 7.14281H16.4286M15.7143 9.99996H16.4286M12.1428 6.42853H4.2857C4.09626 6.42853 3.91458 6.50378 3.78062 6.63774C3.64667 6.77169 3.57141 6.95337 3.57141 7.14281V12.8571C3.57141 13.0465 3.64667 13.2282 3.78062 13.3622C3.91458 13.4961 4.09626 13.5714 4.2857 13.5714H12.1428C12.3323 13.5714 12.514 13.4961 12.6479 13.3622C12.7819 13.2282 12.8571 13.0465 12.8571 12.8571V7.14281C12.8571 6.95337 12.7819 6.77169 12.6479 6.63774C12.514 6.50378 12.3323 6.42853 12.1428 6.42853Z" stroke="#101828" stroke-width="1.4" stroke-linecap="round" stroke-linejoin="round"></path>
  </symbol>
  <symbol fill="none" xmlns="http://www.w3.org/2000/svg" viewBox="0 0 20 20" id="water">
    <path d="M15.625 12.5C15.625 15.952 13.452 18.125 10 18.125C6.54805 18.125 4.375 15.952 4.375 12.5C4.375 8.79571 8.40742 3.79492 9.64414 2.34844C9.68815 2.29705 9.74276 2.25579 9.80422 2.2275C9.86568 2.19922 9.93254 2.18457 10.0002 2.18457C10.0679 2.18457 10.1347 2.19922 10.1962 2.2275C10.2576 2.25579 10.3122 2.29705 10.3562 2.34844C11.5926 3.79492 15.625 8.79571 15.625 12.5Z" stroke="black" stroke-width="1.5" stroke-miterlimit="10"></path>
    <path d="M13.4375 12.8125C13.4375 13.5584 13.1412 14.2738 12.6137 14.8012C12.0863 15.3287 11.3709 15.625 10.625 15.625" stroke="black" stroke-width="1.5" stroke-linecap="round" stroke-linejoin="round"></path>
  </symbol>
  <symbol fill="none" xmlns="http://www.w3.org/2000/svg" viewBox="0 0 20 20" id="gas">
    <path d="M15.6699 8.74467C15.44 8.46132 15.16 8.21576 14.9001 7.9702C14.2302 7.40352 13.4703 6.99739 12.8305 6.40238C11.3407 5.02345 11.0108 2.74727 11.9606 1C11.0108 1.21723 10.1809 1.70835 9.47107 2.2467C6.88155 4.2112 5.86173 7.67741 7.08151 10.6525C7.1215 10.7469 7.16149 10.8414 7.16149 10.9642C7.16149 11.172 7.01152 11.3609 6.81156 11.4364C6.5816 11.5309 6.34165 11.4742 6.15168 11.3231C6.09459 11.2785 6.04708 11.224 6.01171 11.1625C4.88191 9.81192 4.70194 7.87575 5.46181 6.32682C3.79211 7.6113 2.88228 9.78358 3.01225 11.8331C3.07224 12.3053 3.13223 12.7776 3.3022 13.2498C3.44218 13.8165 3.71213 14.3832 4.01207 14.8837C5.09187 16.5177 6.96153 17.6888 8.97116 17.9249C11.1108 18.1799 13.4004 17.8116 15.0401 16.4138C16.8697 14.846 17.5096 12.3337 16.5698 10.1803L16.4398 9.9347C16.2298 9.50024 15.6699 8.74467 15.6699 8.74467ZM12.5105 14.6948C12.2306 14.9215 11.7707 15.1671 11.4107 15.2615C10.2909 15.6393 9.17113 15.1104 8.51125 14.4871C9.70103 14.2226 10.4109 13.3915 10.6209 12.5509C10.7908 11.7953 10.4709 11.172 10.3409 10.4447C10.2209 9.7458 10.2409 9.15079 10.5109 8.4991C10.7008 8.858 10.9008 9.2169 11.1408 9.50024C11.9106 10.4447 13.1204 10.8603 13.3804 12.1448C13.4203 12.277 13.4403 12.4092 13.4403 12.5509C13.4703 13.3254 13.1104 14.1754 12.5105 14.6948Z" fill="#101828"></path>
  </symbol>
  <symbol fill="none" xmlns="http://www.w3.org/2000/svg" viewBox="0 0 20 20" id="freezer">
    <path d="M14.625 1.875H5.37915C4.68879 1.875 4.12915 2.43464 4.12915 3.125V15.8667C4.12915 16.557 4.68879 17.1167 5.37915 17.1167H14.625C15.3153 17.1167 15.875 16.557 15.875 15.8667V3.125C15.875 2.43464 15.3153 1.875 14.625 1.875Z" stroke="#101828" stroke-width="1.3" stroke-linecap="round" stroke-linejoin="round"></path>
    <path d="M4.12915 8.20416H15.8708M6.44582 6.60416V4.07916M6.44582 12.15V9.625M5.26665 17.1167V17.5542C5.26665 17.7048 5.32622 17.8494 5.43237 17.9563C5.53852 18.0633 5.68265 18.1239 5.83332 18.125H6.86248C7.01388 18.125 7.15907 18.0649 7.26612 17.9578C7.37318 17.8507 7.43332 17.7056 7.43332 17.5542V17.1167M12.5625 17.1167V17.5542C12.5625 17.7056 12.6226 17.8507 12.7297 17.9578C12.8367 18.0649 12.9819 18.125 13.1333 18.125H14.1667C14.318 18.125 14.4632 18.0649 14.5703 17.9578C14.6773 17.8507 14.7375 17.7056 14.7375 17.5542V17.1167" stroke="#101828" stroke-width="1.3" stroke-linecap="round" stroke-linejoin="round"></path>
  </symbol>
  <symbol fill="none" xmlns="http://www.w3.org/2000/svg" viewBox="0 0 20 20" id="toilet">
    <g clip-path="url(#clip0_45_574)">
      <path d="M15 2.5C16.2116 2.5 17.0433 3.52917 17.525 4.57083C18.0008 5.60417 18.29 6.9525 18.3291 8.41167L18.3333 8.75V16.6667C18.3334 16.779 18.3108 16.8901 18.2668 16.9935C18.2229 17.0968 18.1585 17.1902 18.0776 17.268C17.9966 17.3459 17.9008 17.4065 17.7958 17.4464C17.6908 17.4863 17.5788 17.5045 17.4666 17.5L17.3633 17.4883L15 17.095L12.6366 17.4883C12.5366 17.505 12.4344 17.5033 12.335 17.4833L12.2366 17.4575L9.99996 16.7117L7.76329 17.4575C7.64597 17.4966 7.52143 17.5091 7.39869 17.4941C7.27594 17.479 7.15808 17.4369 7.05365 17.3707C6.94922 17.3045 6.86083 17.2158 6.7949 17.1112C6.72897 17.0066 6.68714 16.8886 6.67246 16.7658L6.66663 16.6667V14.2275C6.22413 14.6858 5.66996 15 4.99996 15C3.78829 15 2.95663 13.9708 2.47496 12.9292C1.96329 11.8167 1.66663 10.3383 1.66663 8.75C1.66663 7.16167 1.96246 5.68333 2.47496 4.57083C2.93413 3.57583 3.71329 2.59333 4.83746 2.50667L4.99996 2.5H15ZM15 4.16667H7.31829C7.39329 4.3 7.46163 4.435 7.52413 4.57083C8.03746 5.68333 8.33329 7.16167 8.33329 8.75V15.5108L9.73663 15.0425C9.90757 14.9856 10.0924 14.9856 10.2633 15.0425L12.5675 15.8108L14.8633 15.4275C14.9533 15.4125 15.0466 15.4125 15.1366 15.4275L16.6666 15.6833V8.75C16.6666 7.34667 16.4025 6.11667 16.0108 5.26917C15.5875 4.35 15.1691 4.16667 15 4.16667ZM4.99996 4.16667C4.83079 4.16667 4.41246 4.35 3.98913 5.26917C3.59746 6.11667 3.33329 7.34667 3.33329 8.75C3.33329 10.1533 3.59746 11.3833 3.98913 12.2308C4.41246 13.15 4.83079 13.3333 4.99996 13.3333C5.16913 13.3333 5.58746 13.15 6.01079 12.2308C6.40246 11.3833 6.66663 10.1533 6.66663 8.75C6.66663 7.34667 6.40246 6.11667 6.01079 5.26917C5.58746 4.35 5.16913 4.16667 4.99996 4.16667ZM4.99996 7.08333C5.45996 7.08333 5.83329 7.82917 5.83329 8.75C5.83329 9.67083 5.45996 10.4167 4.99996 10.4167C4.53996 10.4167 4.16663 9.67083 4.16663 8.75C4.16663 7.82917 4.53996 7.08333 4.99996 7.08333Z" fill="#101828"></path>
    </g>
    <defs>
      <clipPath id="clip0_45_574">
        <rect width="20" height="20" fill="white"></rect>
      </clipPath>
    </defs>
  </symbol>
  <symbol fill="none" xmlns="http://www.w3.org/2000/svg" viewBox="0 0 20 20" id="hob">
    <path d="M7.49996 4.16669H17.5C17.721 4.16669 17.9329 4.25448 18.0892 4.41076C18.2455 4.56705 18.3333 4.77901 18.3333 5.00002V15.8334C18.3333 16.0544 18.2455 16.2663 18.0892 16.4226C17.9329 16.5789 17.721 16.6667 17.5 16.6667H7.49996M7.49996 4.16669H2.49996C2.27895 4.16669 2.06698 4.25448 1.9107 4.41076C1.75442 4.56705 1.66663 4.77901 1.66663 5.00002V15.8334C1.66663 16.0544 1.75442 16.2663 1.9107 16.4226C2.06698 16.5789 2.27895 16.6667 2.49996 16.6667H7.49996M7.49996 4.16669V16.6667" stroke="#101828" stroke-width="1.5"></path>
    <path d="M4.58325 7.08335V8.75002M15.4166 6.66669L10.4166 13.75" stroke="#101828" stroke-width="1.5" stroke-linecap="round" stroke-linejoin="round"></path>
    <path d="M5.41667 11.25C5.41667 10.7898 5.04357 10.4167 4.58333 10.4167C4.1231 10.4167 3.75 10.7898 3.75 11.25C3.75 11.7103 4.1231 12.0834 4.58333 12.0834C5.04357 12.0834 5.41667 11.7103 5.41667 11.25Z" fill="#101828"></path>
    <path d="M5.41667 13.75C5.41667 13.2898 5.04357 12.9167 4.58333 12.9167C4.1231 12.9167 3.75 13.2898 3.75 13.75C3.75 14.2103 4.1231 14.5834 4.58333 14.5834C5.04357 14.5834 5.41667 14.2103 5.41667 13.75Z" fill="#101828"></path>
  </symbol>
  <symbol fill="none" xmlns="http://www.w3.org/2000/svg" viewBox="0 0 20 20" id="radio">
    <path d="M1.66663 11.6667C1.66663 8.52417 1.66663 6.9525 2.64329 5.97667C3.61913 5 5.19079 5 8.33329 5H11.6666C14.8091 5 16.3808 5 17.3566 5.97667C18.3333 6.9525 18.3333 8.52417 18.3333 11.6667C18.3333 14.8092 18.3333 16.3808 17.3566 17.3567C16.3808 18.3333 14.8091 18.3333 11.6666 18.3333H8.33329C5.19079 18.3333 3.61913 18.3333 2.64329 17.3567C1.66663 16.3808 1.66663 14.8092 1.66663 11.6667Z" stroke="#101828" stroke-width="1.3"></path>
    <path d="M4.16663 9.16667C4.16663 8.72464 4.34222 8.30072 4.65478 7.98816C4.96734 7.6756 5.39127 7.5 5.83329 7.5H14.1666C14.6087 7.5 15.0326 7.6756 15.3451 7.98816C15.6577 8.30072 15.8333 8.72464 15.8333 9.16667C15.8333 9.60869 15.6577 10.0326 15.3451 10.3452C15.0326 10.6577 14.6087 10.8333 14.1666 10.8333H5.83329C5.39127 10.8333 4.96734 10.6577 4.65478 10.3452C4.34222 10.0326 4.16663 9.60869 4.16663 9.16667ZM7.49996 14.1667C7.49996 14.4982 7.36826 14.8161 7.13384 15.0505C6.89942 15.285 6.58148 15.4167 6.24996 15.4167C5.91844 15.4167 5.6005 15.285 5.36608 15.0505C5.13166 14.8161 4.99996 14.4982 4.99996 14.1667C4.99996 13.8351 5.13166 13.5172 5.36608 13.2828C5.6005 13.0484 5.91844 12.9167 6.24996 12.9167C6.58148 12.9167 6.89942 13.0484 7.13384 13.2828C7.36826 13.5172 7.49996 13.8351 7.49996 14.1667Z" stroke="#101828" stroke-width="1.3"></path>
    <path d="M12.5 9.58335V10.8334M10.8333 14.1667H15M5.41663 5.00002L12.5 1.66669" stroke="#101828" stroke-width="1.3" stroke-linecap="round"></path>
  </symbol>
  <symbol fill="none" xmlns="http://www.w3.org/2000/svg" viewBox="0 0 20 20" id="CD">
    <path d="M10 17.5C14.1421 17.5 17.5 14.1421 17.5 10C17.5 5.85786 14.1421 2.5 10 2.5C5.85786 2.5 2.5 5.85786 2.5 10C2.5 14.1421 5.85786 17.5 10 17.5Z" stroke="#101828" stroke-width="1.5"></path>
    <path d="M5.41663 10C5.41663 7.46877 7.46871 5.41669 9.99996 5.41669" stroke="#101828" stroke-width="1.5" stroke-linecap="round"></path>
    <path d="M9.99996 12.0834C11.1506 12.0834 12.0833 11.1506 12.0833 10C12.0833 8.84943 11.1506 7.91669 9.99996 7.91669C8.84937 7.91669 7.91663 8.84943 7.91663 10C7.91663 11.1506 8.84937 12.0834 9.99996 12.0834Z" stroke="#101828" stroke-width="1.5"></path>
  </symbol>
  <symbol fill="none" xmlns="http://www.w3.org/2000/svg" viewBox="0 0 20 20" id="airConditioner">
    <g clip-path="url(#clip0_45_532)">
      <path d="M17.8571 0.714294H2.1428C1.76392 0.714294 1.40056 0.864804 1.13265 1.13271C0.864743 1.40062 0.714233 1.76399 0.714233 2.14287V9.28572C0.714233 9.6646 0.864743 10.028 1.13265 10.2959C1.40056 10.5638 1.76392 10.7143 2.1428 10.7143H17.8571C18.236 10.7143 18.5993 10.5638 18.8672 10.2959C19.1352 10.028 19.2857 9.6646 19.2857 9.28572V2.14287C19.2857 1.76399 19.1352 1.40062 18.8672 1.13271C18.5993 0.864804 18.236 0.714294 17.8571 0.714294Z" stroke="#101828" stroke-width="1.5" stroke-linecap="round" stroke-linejoin="round"></path>
      <path d="M15.7143 10.7143V7.85716C15.7143 7.47828 15.5638 7.11492 15.2958 6.84701C15.0279 6.5791 14.6646 6.42859 14.2857 6.42859H5.71427C5.33539 6.42859 4.97202 6.5791 4.70412 6.84701C4.43621 7.11492 4.2857 7.47828 4.2857 7.85716V10.7143M3.57141 17.8572H3.71427C4.2447 17.8572 4.75341 17.6464 5.12848 17.2714C5.50355 16.8963 5.71427 16.3876 5.71427 15.8572V14.2857M16.4286 17.8572H16.2857C15.7553 17.8572 15.2466 17.6464 14.8715 17.2714C14.4964 16.8963 14.2857 16.3876 14.2857 15.8572V14.2857M9.99998 19.2857V14.2857" stroke="#101828" stroke-width="1.5" stroke-linecap="round" stroke-linejoin="round"></path>
    </g>
    <defs>
      <clipPath id="clip0_45_532">
        <rect width="20" height="20" fill="white"></rect>
      </clipPath>
    </defs>
  </symbol>
  <symbol fill="none" xmlns="http://www.w3.org/2000/svg" viewBox="0 0 24 24" id="heart-liked">
    <path d="M20.8401 4.60999C20.3294 4.099 19.7229 3.69364 19.0555 3.41708C18.388 3.14052 17.6726 2.99817 16.9501 2.99817C16.2276 2.99817 15.5122 3.14052 14.8448 3.41708C14.1773 3.69364 13.5709 4.099 13.0601 4.60999L12.0001 5.66999L10.9401 4.60999C9.90842 3.5783 8.50915 2.9987 7.05012 2.9987C5.59108 2.9987 4.19181 3.5783 3.16012 4.60999C2.12843 5.64169 1.54883 7.04096 1.54883 8.49999C1.54883 9.95903 2.12843 11.3583 3.16012 12.39L4.22012 13.45L12.0001 21.23L19.7801 13.45L20.8401 12.39C21.3511 11.8792 21.7565 11.2728 22.033 10.6053C22.3096 9.93789 22.4519 9.22248 22.4519 8.49999C22.4519 7.77751 22.3096 7.0621 22.033 6.39464C21.7565 5.72718 21.3511 5.12075 20.8401 4.60999Z" fill="#E44848" stroke="#E44848" stroke-width="2.3" stroke-linecap="round" stroke-linejoin="round"></path>
  </symbol>
  <symbol fill="none" xmlns="http://www.w3.org/2000/svg" viewBox="0 0 24 24" id="heart">
    <path d="M20.8401 4.60999C20.3294 4.099 19.7229 3.69364 19.0555 3.41708C18.388 3.14052 17.6726 2.99817 16.9501 2.99817C16.2276 2.99817 15.5122 3.14052 14.8448 3.41708C14.1773 3.69364 13.5709 4.099 13.0601 4.60999L12.0001 5.66999L10.9401 4.60999C9.90842 3.5783 8.50915 2.9987 7.05012 2.9987C5.59108 2.9987 4.19181 3.5783 3.16012 4.60999C2.12843 5.64169 1.54883 7.04096 1.54883 8.49999C1.54883 9.95903 2.12843 11.3583 3.16012 12.39L4.22012 13.45L12.0001 21.23L19.7801 13.45L20.8401 12.39C21.3511 11.8792 21.7565 11.2728 22.033 10.6053C22.3096 9.93789 22.4519 9.22248 22.4519 8.49999C22.4519 7.77751 22.3096 7.0621 22.033 6.39464C21.7565 5.72718 21.3511 5.12075 20.8401 4.60999Z" stroke="#101828" stroke-width="2.3" stroke-linecap="round" stroke-linejoin="round"></path>
  </symbol>
  <symbol fill="none" xmlns="http://www.w3.org/2000/svg" viewBox="0 0 20 20" id="calendar">
    <path d="M15.8333 3.33333H4.16667C3.24619 3.33333 2.5 4.07952 2.5 4.99999V16.6667C2.5 17.5871 3.24619 18.3333 4.16667 18.3333H15.8333C16.7538 18.3333 17.5 17.5871 17.5 16.6667V4.99999C17.5 4.07952 16.7538 3.33333 15.8333 3.33333Z" stroke="#101828" stroke-width="1.5" stroke-linecap="round" stroke-linejoin="round"></path>
    <path d="M13.3333 1.66667V5.00001" stroke="#101828" stroke-width="1.5" stroke-linecap="round" stroke-linejoin="round"></path>
    <path d="M6.66675 1.66667V5.00001" stroke="#101828" stroke-width="1.5" stroke-linecap="round" stroke-linejoin="round"></path>
    <path d="M2.5 8.33333H17.5" stroke="#101828" stroke-width="1.5" stroke-linecap="round" stroke-linejoin="round"></path>
  </symbol>
  <symbol fill="none" xmlns="http://www.w3.org/2000/svg" viewBox="0 0 20 20" id="beds">
    <path d="M1.875 16.25V11.875C1.87696 11.2126 2.14098 10.5778 2.6094 10.1094C3.07781 9.64098 3.71256 9.37696 4.375 9.375H15.625C16.2874 9.37696 16.9222 9.64098 17.3906 10.1094C17.859 10.5778 18.123 11.2126 18.125 11.875V16.25M15 9.375H3.75V5.3125C3.75124 4.89848 3.91625 4.50177 4.20901 4.20901C4.50177 3.91625 4.89848 3.75124 5.3125 3.75H14.6875C15.1015 3.75124 15.4982 3.91625 15.791 4.20901C16.0837 4.50177 16.2488 4.89848 16.25 5.3125V9.375H15Z" stroke="#101828" stroke-width="1.4" stroke-linecap="round" stroke-linejoin="round"></path>
    <path d="M1.875 16.25V15.9375C1.87572 15.6891 1.97473 15.451 2.15038 15.2754C2.32604 15.0997 2.56408 15.0007 2.8125 15H17.1875C17.4359 15.0007 17.674 15.0997 17.8496 15.2754C18.0253 15.451 18.1243 15.6891 18.125 15.9375V16.25M4.375 9.375V8.75C4.37593 8.41876 4.50792 8.10136 4.74214 7.86714C4.97636 7.63292 5.29376 7.50093 5.625 7.5H8.75C9.08124 7.50093 9.39864 7.63292 9.63286 7.86714C9.86708 8.10136 9.99907 8.41876 10 8.75M10 8.75V9.375M10 8.75C10.0009 8.41876 10.1329 8.10136 10.3671 7.86714C10.6014 7.63292 10.9188 7.50093 11.25 7.5H14.375C14.7062 7.50093 15.0236 7.63292 15.2579 7.86714C15.4921 8.10136 15.6241 8.41876 15.625 8.75V9.375" stroke="#101828" stroke-width="1.4" stroke-linecap="round" stroke-linejoin="round"></path>
  </symbol>
  <symbol fill="none" xmlns="http://www.w3.org/2000/svg" viewBox="0 0 20 20" id="Route">
    <g clip-path="url(#clip0_18_11576)">
      <path fill-rule="evenodd" clip-rule="evenodd" d="M4.16659 2.49999C3.24611 2.49999 2.49992 3.24619 2.49992 4.16666C2.49992 5.08714 3.24611 5.83333 4.16659 5.83333C5.08706 5.83333 5.83325 5.08714 5.83325 4.16666C5.83325 3.24619 5.08706 2.49999 4.16659 2.49999ZM0.833252 4.16666C0.833252 2.32571 2.32564 0.833328 4.16659 0.833328C6.00753 0.833328 7.49992 2.32571 7.49992 4.16666C7.49992 6.00761 6.00753 7.49999 4.16659 7.49999C2.32564 7.49999 0.833252 6.00761 0.833252 4.16666Z" fill="#101828"></path>
      <path fill-rule="evenodd" clip-rule="evenodd" d="M15.8333 14.1667C14.9129 14.1667 14.1667 14.9129 14.1667 15.8333C14.1667 16.7538 14.9129 17.5 15.8333 17.5C16.7538 17.5 17.5 16.7538 17.5 15.8333C17.5 14.9129 16.7538 14.1667 15.8333 14.1667ZM12.5 15.8333C12.5 13.9924 13.9924 12.5 15.8333 12.5C17.6743 12.5 19.1667 13.9924 19.1667 15.8333C19.1667 17.6743 17.6743 19.1667 15.8333 19.1667C13.9924 19.1667 12.5 17.6743 12.5 15.8333Z" fill="#101828"></path>
      <path fill-rule="evenodd" clip-rule="evenodd" d="M8.33338 4.16666C8.33338 3.70642 8.70647 3.33333 9.16671 3.33333H14.4167C16.9981 3.33333 17.9289 6.71051 15.6587 7.97624L5.9881 13.4785C5.2633 13.8812 5.49965 15 6.41671 15H10.8334C11.2936 15 11.6667 15.3731 11.6667 15.8333C11.6667 16.2936 11.2936 16.6667 10.8334 16.6667H6.41671C3.83529 16.6667 2.90456 13.2895 5.17466 12.0238L14.8453 6.52149C15.5701 6.11883 15.3338 4.99999 14.4167 4.99999H9.16671C8.70647 4.99999 8.33338 4.6269 8.33338 4.16666Z" fill="#101828"></path>
    </g>
    <defs>
      <clipPath id="clip0_18_11576">
        <rect width="20" height="20" fill="white"></rect>
      </clipPath>
    </defs>
  </symbol>
  <symbol fill="none" xmlns="http://www.w3.org/2000/svg" viewBox="0 0 20 20" id="engine">
    <path d="M16.4749 6.025L16.4833 6.01667L13.3833 2.91667L12.4999 3.8L14.2583 5.55833C13.4749 5.85833 12.9166 6.60833 12.9166 7.5C12.9166 7.77359 12.9705 8.0445 13.0752 8.29726C13.1799 8.55002 13.3333 8.77968 13.5268 8.97314C13.9175 9.36384 14.4474 9.58333 14.9999 9.58333C15.2999 9.58333 15.5749 9.51667 15.8333 9.40833V15.4167C15.8333 15.6377 15.7455 15.8496 15.5892 16.0059C15.4329 16.1622 15.2209 16.25 14.9999 16.25C14.7789 16.25 14.5669 16.1622 14.4107 16.0059C14.2544 15.8496 14.1666 15.6377 14.1666 15.4167V11.6667C14.1666 11.2246 13.991 10.8007 13.6784 10.4882C13.3659 10.1756 12.9419 10 12.4999 10H11.6666V4.16667C11.6666 3.72464 11.491 3.30072 11.1784 2.98816C10.8659 2.67559 10.4419 2.5 9.99992 2.5H4.99992C4.55789 2.5 4.13397 2.67559 3.82141 2.98816C3.50885 3.30072 3.33325 3.72464 3.33325 4.16667V17.5H11.6666V11.25H12.9166V15.4167C12.9166 15.9692 13.1361 16.4991 13.5268 16.8898C13.9175 17.2805 14.4474 17.5 14.9999 17.5C15.2735 17.5 15.5444 17.4461 15.7972 17.3414C16.0499 17.2367 16.2796 17.0833 16.4731 16.8898C16.6665 16.6964 16.82 16.4667 16.9247 16.2139C17.0294 15.9612 17.0833 15.6903 17.0833 15.4167V7.5C17.0833 6.925 16.8499 6.4 16.4749 6.025ZM9.99992 11.25V15.8333H4.99992V10H9.99992V11.25ZM9.99992 8.33333H4.99992V4.16667H9.99992V8.33333ZM14.9999 8.33333C14.7789 8.33333 14.5669 8.24554 14.4107 8.08926C14.2544 7.93297 14.1666 7.72101 14.1666 7.5C14.1666 7.27899 14.2544 7.06702 14.4107 6.91074C14.5669 6.75446 14.7789 6.66667 14.9999 6.66667C15.2209 6.66667 15.4329 6.75446 15.5892 6.91074C15.7455 7.06702 15.8333 7.27899 15.8333 7.5C15.8333 7.72101 15.7455 7.93297 15.5892 8.08926C15.4329 8.24554 15.2209 8.33333 14.9999 8.33333Z" fill="#101828"></path>
  </symbol>
  <symbol fill="none" xmlns="http://www.w3.org/2000/svg" viewBox="0 0 20 20" id="adults">
    <path d="M5.66666 15.0833H2.91666C2.74999 15.0833 2.66666 15 2.58333 14.9167C2.49999 14.8333 2.41666 14.6667 2.49999 14.5C2.99999 13.0833 4.24999 12.25 5.66666 12.25C7.41666 12.25 8.83333 10.75 8.83333 9.00001C8.83333 7.25001 7.41666 5.58334 5.66666 5.58334C3.91666 5.58334 2.49999 7.08334 2.49999 8.91668C2.49999 9.75001 2.83333 10.5833 3.33333 11.1667C2.24999 11.75 1.41666 12.6667 0.91666 13.9167C0.749994 14.5 0.833327 15.25 1.24999 15.8333C1.66666 16.4167 2.24999 16.75 2.91666 16.75H5.66666C6.16666 16.75 6.49999 16.4167 6.49999 15.9167C6.49999 15.4167 6.16666 15.0833 5.66666 15.0833ZM4.16666 8.91668C4.16666 8.00001 4.83333 7.33334 5.66666 7.33334C6.49999 7.33334 7.16666 8.08334 7.16666 8.91668C7.16666 9.83334 6.49999 10.5 5.66666 10.5C4.83333 10.5 4.16666 9.75001 4.16666 8.91668Z" fill="#101828"></path>
    <path d="M19.0833 13.4167C18.5 11.8333 17.3333 10.6667 16 10C16.75 9.33335 17.1666 8.33335 17.1666 7.16668C17.1666 5.00002 15.5 3.25002 13.5 3.25002C11.5 3.25002 9.83331 5.00002 9.83331 7.16668C9.83331 8.25002 10.25 9.25002 11 10C9.66664 10.6667 8.49998 11.8333 7.91664 13.4167C7.49998 14.1667 7.66664 15 8.08331 15.6667C8.49998 16.3333 9.24998 16.6667 9.99998 16.6667H16.9166C17.6666 16.6667 18.4166 16.25 18.8333 15.6667C19.3333 15 19.4166 14.1667 19.0833 13.4167ZM11.4166 7.25002C11.4166 6.00002 12.3333 5.00002 13.4166 5.00002C14.5 5.00002 15.4166 6.00002 15.4166 7.25002C15.4166 8.50001 14.5 9.50002 13.4166 9.50002C12.3333 9.50002 11.4166 8.41668 11.4166 7.25002ZM17.4166 14.75C17.3333 14.8333 17.1666 15.0833 16.9166 15.0833H9.99998C9.66664 15.0833 9.49998 14.8333 9.49998 14.75C9.41664 14.6667 9.24998 14.3333 9.41665 14C10.0833 12.25 11.75 11.0833 13.5 11.0833C15.25 11.0833 16.9166 12.25 17.5833 14C17.6666 14.3333 17.5 14.6667 17.4166 14.75Z" fill="#101828"></path>
  </symbol>
  <symbol fill="none" xmlns="http://www.w3.org/2000/svg" viewBox="0 0 18 20" id="map-pin-2">
    <g clip-path="url(#clip0_46_657)">
      <path d="M16.5 8.33334C16.5 14.1667 9 19.1667 9 19.1667C9 19.1667 1.5 14.1667 1.5 8.33334C1.5 6.34422 2.29018 4.43657 3.6967 3.03004C5.10322 1.62352 7.01088 0.833344 9 0.833344C10.9891 0.833344 12.8968 1.62352 14.3033 3.03004C15.7098 4.43657 16.5 6.34422 16.5 8.33334Z" stroke="#101828" stroke-width="1.5" stroke-linecap="round" stroke-linejoin="round"></path>
      <path d="M9 10.8333C10.3807 10.8333 11.5 9.71406 11.5 8.33334C11.5 6.95263 10.3807 5.83334 9 5.83334C7.61929 5.83334 6.5 6.95263 6.5 8.33334C6.5 9.71406 7.61929 10.8333 9 10.8333Z" stroke="#101828" stroke-width="1.5" stroke-linecap="round" stroke-linejoin="round"></path>
    </g>
    <defs>
      <clipPath id="clip0_46_657">
        <rect width="18" height="20" fill="white"></rect>
      </clipPath>
    </defs>
  </symbol>
  <symbol fill="none" xmlns="http://www.w3.org/2000/svg" viewBox="0 0 18 20" id="map-pin">
    <g clip-path="url(#clip0_46_623)">
      <path d="M16.5 8.33334C16.5 14.1667 9 19.1667 9 19.1667C9 19.1667 1.5 14.1667 1.5 8.33334C1.5 6.34422 2.29018 4.43657 3.6967 3.03004C5.10322 1.62352 7.01088 0.833344 9 0.833344C10.9891 0.833344 12.8968 1.62352 14.3033 3.03004C15.7098 4.43657 16.5 6.34422 16.5 8.33334Z" stroke="#101828" stroke-opacity="0.6" stroke-width="1.5" stroke-linecap="round" stroke-linejoin="round"></path>
      <path d="M9 10.8333C10.3807 10.8333 11.5 9.71406 11.5 8.33334C11.5 6.95263 10.3807 5.83334 9 5.83334C7.61929 5.83334 6.5 6.95263 6.5 8.33334C6.5 9.71406 7.61929 10.8333 9 10.8333Z" stroke="#101828" stroke-opacity="0.6" stroke-width="1.5" stroke-linecap="round" stroke-linejoin="round"></path>
    </g>
    <defs>
      <clipPath id="clip0_46_623">
        <rect width="18" height="20" fill="white"></rect>
      </clipPath>
    </defs>
  </symbol>
  <symbol fill="none" xmlns="http://www.w3.org/2000/svg" viewBox="0 0 40 28" id="panelTruck">
    <path d="M2.28197 1.57469H13.14C13.2318 1.57469 13.318 1.53975 13.3831 1.47627L14.4262 0.45863C14.7294 0.162883 15.1324 0 15.5612 0H32.0257C32.7924 0 33.5042 0.371529 33.9299 0.994024L35.9032 3.88162C36.1831 4.29153 36.2088 4.81561 35.9707 5.25012C35.7327 5.68464 35.2706 5.95431 34.7657 5.95431H26.2799V6.79086H30.626C31.7781 6.79086 32.8146 7.45863 33.2666 8.49251L35.8113 14.311L38.0404 15.181C39.2308 15.6456 40 16.7537 40 18.0046V23.393C40 24.1966 39.3296 24.8506 38.5059 24.8506H35.9122C35.6106 26.6344 34.0187 28 32.1059 28C30.1932 28 28.6013 26.6344 28.2996 24.8506H14.1216C13.8199 26.6344 12.228 28 10.3153 28C8.40252 28 6.81059 26.6344 6.50895 24.8506H1.32812C0.595715 24.8506 0 24.2695 0 23.5549V3.80091C0 2.57315 1.02345 1.57469 2.28197 1.57469ZM32.1059 26.7698C33.5385 26.7698 34.7037 25.633 34.7037 24.2355C34.7037 22.838 33.5385 21.7012 32.1059 21.7012C30.6734 21.7012 29.5082 22.838 29.5082 24.2355C29.5082 25.633 30.6734 26.7698 32.1059 26.7698ZM26.2799 23.6204H28.2986C28.3037 23.5894 28.3102 23.5594 28.3163 23.5289C28.3203 23.5082 28.3238 23.4875 28.3284 23.4669C28.3385 23.4186 28.3501 23.3709 28.3622 23.3232C28.3647 23.3133 28.3667 23.3035 28.3697 23.2936C28.3849 23.2361 28.4015 23.1795 28.4192 23.1234C28.4242 23.1071 28.4303 23.0909 28.4358 23.0742C28.4489 23.0348 28.4625 22.9954 28.4767 22.9566C28.4847 22.9359 28.4928 22.9152 28.5014 22.8946C28.5145 22.8606 28.5276 22.8266 28.5422 22.7932C28.5513 22.771 28.5614 22.7494 28.5715 22.7277C28.5856 22.6957 28.5997 22.6647 28.6149 22.6333C28.626 22.6111 28.6366 22.5895 28.6482 22.5673C28.6633 22.5373 28.6794 22.5068 28.6956 22.4773C28.7072 22.4556 28.7193 22.434 28.7314 22.4123C28.748 22.3828 28.7657 22.3533 28.7834 22.3242C28.796 22.3035 28.8086 22.2829 28.8212 22.2622C28.8404 22.2327 28.8595 22.2037 28.8792 22.1741C28.8923 22.1549 28.9049 22.1357 28.918 22.117C28.9397 22.086 28.9624 22.0555 28.9856 22.025C28.9972 22.0088 29.0088 21.9925 29.0209 21.9768C29.0522 21.9364 29.084 21.8976 29.1163 21.8587C29.1208 21.8528 29.1253 21.8469 29.1304 21.841C29.1677 21.7967 29.2066 21.7534 29.2459 21.7111C29.258 21.6978 29.2706 21.6855 29.2832 21.6727C29.311 21.6437 29.3387 21.6146 29.3675 21.5861C29.3836 21.5703 29.4003 21.5551 29.4164 21.5398C29.4421 21.5152 29.4683 21.4906 29.4951 21.4665C29.5127 21.4508 29.5309 21.435 29.5491 21.4193C29.5753 21.3966 29.6015 21.3745 29.6282 21.3523L29.6858 21.3066C29.7125 21.2854 29.7397 21.2647 29.767 21.2441C29.7866 21.2293 29.8068 21.2146 29.827 21.2003C29.8547 21.1801 29.883 21.1609 29.9117 21.1412C29.9319 21.1279 29.9521 21.1142 29.9723 21.1009C30.002 21.0812 30.0328 21.0625 30.0631 21.0438C30.0827 21.032 30.1024 21.0197 30.1226 21.0079C30.1559 20.9882 30.1902 20.9695 30.2245 20.9508C30.2421 20.941 30.2593 20.9311 30.2764 20.9218C30.3253 20.8962 30.3743 20.8716 30.4237 20.8479C30.4277 20.8465 30.4313 20.8445 30.4353 20.8425C30.4888 20.8174 30.5433 20.7933 30.5977 20.7707C30.6154 20.7633 30.6335 20.7569 30.6512 20.7495C30.6885 20.7348 30.7264 20.72 30.7647 20.7057C30.7864 20.6979 30.8086 20.691 30.8303 20.6831C30.8651 20.6713 30.8999 20.6595 30.9352 20.6486C30.9589 20.6413 30.9826 20.6344 31.0068 20.6275C31.0411 20.6176 31.0754 20.6078 31.1097 20.5989C31.1344 20.5925 31.1591 20.5862 31.1844 20.5802C31.2187 20.5719 31.253 20.5645 31.2878 20.5571C31.313 20.5517 31.3382 20.5463 31.3639 20.5414C31.3992 20.535 31.4346 20.5286 31.4704 20.5232C31.4956 20.5187 31.5203 20.5148 31.546 20.5114C31.5828 20.5059 31.6202 20.5015 31.658 20.4971C31.6817 20.4946 31.7059 20.4912 31.7301 20.4892C31.7715 20.4853 31.8134 20.4823 31.8552 20.4799C31.8759 20.4784 31.8961 20.4764 31.9168 20.4759C31.9798 20.4725 32.0424 20.471 32.1059 20.471C32.1695 20.471 32.232 20.4725 32.2951 20.4759C32.3158 20.4764 32.3359 20.4784 32.3566 20.4799C32.3985 20.4823 32.4404 20.4853 32.4817 20.4892C32.5059 20.4912 32.5301 20.4946 32.5538 20.4971C32.5917 20.5015 32.629 20.5059 32.6658 20.5114C32.6916 20.5148 32.7163 20.5187 32.7415 20.5232C32.7773 20.5286 32.8126 20.535 32.8479 20.5414C32.8736 20.5463 32.8989 20.5517 32.9241 20.5571C32.9589 20.5645 32.9932 20.5719 33.0275 20.5802C33.0527 20.5862 33.0774 20.5925 33.1021 20.5989C33.1364 20.6078 33.1707 20.6176 33.205 20.6275C33.2293 20.6344 33.253 20.6413 33.2767 20.6486C33.312 20.6595 33.3468 20.6713 33.3816 20.6831C33.4033 20.691 33.4255 20.6979 33.4472 20.7057C33.4855 20.72 33.5233 20.7348 33.5607 20.7495C33.5783 20.7569 33.5965 20.7633 33.6141 20.7707C33.6686 20.7933 33.7231 20.8174 33.7765 20.8425C33.7806 20.8445 33.7841 20.8465 33.7881 20.8479C33.8376 20.8716 33.8865 20.8962 33.9354 20.9218C33.9526 20.9311 33.9697 20.941 33.9874 20.9508C34.0217 20.9695 34.056 20.9882 34.0893 21.0079C34.1095 21.0197 34.1291 21.032 34.1488 21.0438C34.1791 21.0625 34.2098 21.0812 34.2396 21.1009C34.2598 21.1142 34.2799 21.1279 34.3001 21.1412C34.3289 21.1609 34.3571 21.1801 34.3849 21.2003C34.405 21.2146 34.4252 21.2293 34.4449 21.2441C34.4721 21.2647 34.4994 21.2854 34.5261 21.3066L34.5836 21.3523C34.6103 21.3745 34.6366 21.3966 34.6628 21.4193C34.681 21.435 34.6991 21.4508 34.7168 21.4665C34.7435 21.4906 34.7697 21.5152 34.7955 21.5398C34.8116 21.5551 34.8282 21.5703 34.8444 21.5861C34.8731 21.6146 34.9009 21.6437 34.9286 21.6727C34.9412 21.6855 34.9538 21.6978 34.966 21.7111C35.0053 21.7534 35.0441 21.7967 35.0815 21.841C35.0865 21.8469 35.091 21.8528 35.0956 21.8587C35.1279 21.8976 35.1596 21.9364 35.1909 21.9768C35.203 21.9925 35.2146 22.0088 35.2262 22.025C35.2494 22.0555 35.2721 22.086 35.2938 22.117C35.3069 22.1357 35.3195 22.1549 35.3327 22.1741C35.3523 22.2037 35.3715 22.2327 35.3907 22.2622C35.4033 22.2829 35.4159 22.3035 35.4285 22.3242C35.4462 22.3533 35.4638 22.3828 35.4805 22.4123C35.4926 22.434 35.5047 22.4556 35.5163 22.4773C35.5324 22.5068 35.5486 22.5373 35.5637 22.5673C35.5753 22.5895 35.5859 22.6111 35.597 22.6333C35.6121 22.6647 35.6262 22.6957 35.6404 22.7277C35.6504 22.7494 35.6605 22.771 35.6696 22.7932C35.6842 22.8266 35.6974 22.8606 35.7105 22.8946C35.719 22.9152 35.7271 22.9359 35.7352 22.9566C35.7493 22.9954 35.7629 23.0348 35.776 23.0742C35.7816 23.0909 35.7876 23.1071 35.7927 23.1234C35.8103 23.1795 35.827 23.2361 35.8421 23.2936C35.8451 23.3035 35.8472 23.3133 35.8497 23.3232C35.8618 23.3709 35.8734 23.4186 35.8835 23.4669C35.888 23.4875 35.8916 23.5082 35.8956 23.5289C35.9016 23.5594 35.9082 23.5894 35.9132 23.6204H38.5059C38.6346 23.6204 38.739 23.5185 38.739 23.393V20.8155H37.7554V19.5852H38.739V18.0046C38.739 17.2596 38.281 16.5997 37.5723 16.3232L35.2126 15.4025H26.2799V23.6204ZM26.2799 14.1722H34.3798L32.1069 8.97526C31.8532 8.39557 31.2721 8.02109 30.626 8.02109H26.2799V14.1722ZM10.3153 26.7698C11.7478 26.7698 12.913 25.633 12.913 24.2355C12.913 22.838 11.7478 21.7012 10.3153 21.7012C10.2704 21.7012 10.226 21.7022 10.1816 21.7047C8.98815 21.7637 8.00454 22.6131 7.77049 23.7252C7.76192 23.7665 7.75385 23.8084 7.74729 23.8502C7.73418 23.9338 7.7256 24.019 7.72106 24.1051C7.71854 24.1484 7.71753 24.1917 7.71753 24.2355C7.71753 25.633 8.88272 26.7698 10.3153 26.7698ZM1.26103 19.5852H2.24464V20.8155H1.26103V23.5549C1.26103 23.5909 1.2913 23.6204 1.32812 23.6204H6.50795C6.51299 23.5899 6.51955 23.5599 6.5256 23.5298C6.52963 23.5087 6.53316 23.4875 6.5377 23.4664C6.54779 23.4191 6.55889 23.3724 6.571 23.3261C6.57402 23.3153 6.57604 23.304 6.57907 23.2931C6.5942 23.2361 6.61084 23.18 6.6285 23.1239C6.63404 23.1066 6.6401 23.0894 6.64565 23.0727C6.65876 23.0338 6.67188 22.9949 6.686 22.957C6.69407 22.9354 6.70265 22.9147 6.71072 22.8936C6.72383 22.8601 6.73745 22.8266 6.75107 22.7937C6.76066 22.771 6.77074 22.7489 6.78083 22.7268C6.79496 22.6957 6.80908 22.6647 6.82421 22.6337C6.8348 22.6111 6.84641 22.589 6.8575 22.5668C6.87263 22.5368 6.88827 22.5073 6.90442 22.4773C6.91652 22.4556 6.92862 22.434 6.94073 22.4123C6.95788 22.3828 6.97503 22.3537 6.99269 22.3247C7.00529 22.3036 7.01791 22.2829 7.03102 22.2622C7.04969 22.2327 7.06886 22.2037 7.08853 22.1751C7.10114 22.1554 7.11425 22.1357 7.12737 22.117C7.14906 22.086 7.17175 22.056 7.19395 22.026C7.20605 22.0093 7.21816 21.9925 7.23077 21.9763C7.26103 21.9374 7.29181 21.8991 7.32358 21.8612C7.32913 21.8543 7.33418 21.8474 7.33972 21.841C7.37756 21.7967 7.41589 21.7534 7.45523 21.7111C7.46784 21.6978 7.48045 21.685 7.49306 21.6717C7.52081 21.6427 7.54855 21.6141 7.5768 21.5861C7.59294 21.5703 7.60958 21.5551 7.62623 21.5393C7.65195 21.5147 7.67768 21.4906 7.70441 21.4665C7.72207 21.4508 7.74073 21.435 7.75889 21.4188C7.78461 21.3966 7.81084 21.3745 7.83758 21.3528C7.85675 21.3371 7.87592 21.3213 7.89559 21.3061C7.92182 21.2854 7.94905 21.2647 7.97629 21.2441C7.99596 21.2293 8.01614 21.2146 8.03632 21.2003C8.06406 21.1801 8.09231 21.1609 8.12055 21.1417C8.14124 21.1279 8.16141 21.1142 8.18159 21.1009C8.21135 21.0812 8.24161 21.0625 8.27188 21.0443C8.29206 21.032 8.31173 21.0197 8.3319 21.0079C8.36519 20.9882 8.39899 20.9695 8.43329 20.9508C8.45095 20.941 8.4681 20.9311 8.48625 20.9218C8.53417 20.8962 8.5826 20.8721 8.63203 20.8489C8.63607 20.847 8.6401 20.8445 8.64464 20.8425C8.69811 20.8174 8.75258 20.7933 8.80706 20.7707C8.82471 20.7633 8.84287 20.7569 8.86053 20.7495C8.89836 20.7348 8.93569 20.72 8.97402 20.7057C8.99571 20.6979 9.0179 20.691 9.0401 20.6831C9.0744 20.6713 9.10921 20.6595 9.14451 20.6486C9.16822 20.6413 9.19243 20.6344 9.21614 20.6275C9.25044 20.6176 9.28474 20.6078 9.31904 20.5989C9.34376 20.5925 9.36847 20.5862 9.39369 20.5802C9.42799 20.5719 9.4623 20.5645 9.4971 20.5571C9.52232 20.5517 9.54754 20.5463 9.57327 20.5414C9.60857 20.535 9.64388 20.5286 9.6797 20.5232C9.70492 20.5187 9.72964 20.5148 9.75536 20.5114C9.79218 20.5059 9.82951 20.5015 9.86734 20.4971C9.89105 20.4946 9.91526 20.4912 9.93947 20.4892C9.98083 20.4853 10.0227 20.4823 10.0646 20.4799C10.0852 20.4784 10.1054 20.4764 10.1261 20.4759C10.1892 20.4725 10.2517 20.471 10.3153 20.471C10.3788 20.471 10.4414 20.4725 10.5044 20.4759C10.5251 20.4764 10.5453 20.4784 10.566 20.4799C10.6078 20.4823 10.6497 20.4853 10.691 20.4892C10.7153 20.4912 10.7395 20.4946 10.7632 20.4971C10.801 20.5015 10.8383 20.5059 10.8752 20.5114C10.9009 20.5148 10.9256 20.5187 10.9508 20.5232C10.9866 20.5286 11.0219 20.535 11.0573 20.5414C11.083 20.5463 11.1082 20.5517 11.1334 20.5571C11.1682 20.5645 11.2025 20.5719 11.2368 20.5802C11.262 20.5862 11.2868 20.5925 11.3115 20.5989C11.3458 20.6078 11.3801 20.6176 11.4144 20.6275C11.4381 20.6344 11.4623 20.6413 11.486 20.6486C11.5213 20.6595 11.5561 20.6713 11.5904 20.6831C11.6126 20.691 11.6348 20.6979 11.6565 20.7057C11.6948 20.72 11.7322 20.7348 11.77 20.7495C11.7876 20.7569 11.8058 20.7633 11.8235 20.7707C11.8779 20.7933 11.9324 20.8174 11.9859 20.8425C11.9904 20.8445 11.9945 20.8465 11.9985 20.8489C12.0479 20.8721 12.0963 20.8962 12.1443 20.9218C12.1624 20.9311 12.1796 20.941 12.1972 20.9508C12.231 20.9695 12.2653 20.9882 12.2986 21.0079C12.3188 21.0197 12.3385 21.032 12.3586 21.0443C12.3889 21.0625 12.4192 21.0812 12.4489 21.1009C12.4691 21.1142 12.4893 21.1279 12.51 21.1417C12.5382 21.1609 12.5665 21.1801 12.5942 21.2003C12.6144 21.2146 12.6346 21.2293 12.6542 21.2441C12.6815 21.2647 12.7087 21.2854 12.7349 21.3061C12.7546 21.3213 12.7738 21.3371 12.7929 21.3528C12.8197 21.3745 12.8459 21.3966 12.8716 21.4193C12.8898 21.435 12.9084 21.4508 12.9261 21.4665C12.9528 21.4906 12.9786 21.5152 13.0048 21.5398C13.0209 21.5551 13.0376 21.5703 13.0537 21.5861C13.082 21.6141 13.1102 21.6432 13.138 21.6722C13.1501 21.685 13.1632 21.6978 13.1753 21.7111C13.2146 21.7534 13.253 21.7967 13.2908 21.841C13.2958 21.8474 13.3009 21.8538 13.3059 21.8597C13.3377 21.8981 13.3695 21.9369 13.3997 21.9768C13.4124 21.9925 13.424 22.0088 13.4361 22.025C13.4588 22.0555 13.4815 22.086 13.5032 22.117C13.5163 22.1357 13.5289 22.1554 13.542 22.1746C13.5617 22.2037 13.5808 22.2327 13.5995 22.2622C13.6126 22.2829 13.6252 22.3035 13.6378 22.3242C13.6555 22.3533 13.6731 22.3828 13.6898 22.4123C13.7019 22.434 13.714 22.4556 13.7256 22.4773C13.7422 22.5068 13.7579 22.5373 13.7735 22.5673C13.7846 22.5895 13.7952 22.6111 13.8063 22.6333C13.8214 22.6647 13.8356 22.6962 13.8497 22.7277C13.8598 22.7494 13.8699 22.771 13.8789 22.7932C13.8936 22.8266 13.9067 22.8606 13.9203 22.8946C13.9284 22.9152 13.9364 22.9359 13.9445 22.9566C13.9591 22.9959 13.9723 23.0353 13.9854 23.0751C13.9909 23.0914 13.997 23.1071 14.002 23.1234C14.0197 23.1795 14.0363 23.2366 14.052 23.2936C14.054 23.3025 14.056 23.3118 14.058 23.3207C14.0706 23.3694 14.0822 23.4181 14.0928 23.4673C14.0974 23.487 14.1009 23.5072 14.1044 23.5274C14.1105 23.5584 14.117 23.5889 14.1226 23.6204H25.0189V5.33919C25.0189 4.99965 25.3014 4.72408 25.6494 4.72408H34.7657C34.7813 4.72408 34.8293 4.72408 34.859 4.66946C34.8888 4.61533 34.8625 4.57645 34.8535 4.56415L32.8807 1.67656C32.6895 1.39705 32.3702 1.23023 32.0257 1.23023H15.5612C15.4694 1.23023 15.3831 1.26517 15.318 1.32865L14.2749 2.34629C13.9718 2.64204 13.5687 2.80492 13.14 2.80492H2.28197C1.71904 2.80492 1.26103 3.25174 1.26103 3.80091V19.5852Z" fill="#101828"></path>
    <path d="M4.84372 6.2981H12.5562C13.4475 6.2981 14.1729 7.00572 14.1729 7.87525V11.4631C14.1729 12.3326 13.4475 13.0402 12.5562 13.0402H4.84321C3.95192 13.0402 3.22657 12.3326 3.22657 11.4631V7.87525C3.22707 7.00572 3.95242 6.2981 4.84372 6.2981ZM4.48811 11.4626C4.48811 11.6535 4.6475 11.8095 4.84372 11.8095H12.5562C12.7524 11.8095 12.9118 11.654 12.9118 11.4626V7.87476C12.9118 7.68382 12.7524 7.52783 12.5562 7.52783H4.84321C4.647 7.52783 4.4876 7.68333 4.4876 7.87476L4.48811 11.4626Z" fill="#101828"></path>
  </symbol>
  <symbol fill="none" xmlns="http://www.w3.org/2000/svg" viewBox="0 0 40 28" id="fullyIntegrated">
    <path d="M2.28197 1.57469H13.14C13.2318 1.57469 13.318 1.53975 13.3831 1.47627L14.4262 0.45863C14.7294 0.162883 15.1324 0 15.5612 0H32.0257C32.7924 0 33.5042 0.371529 33.9299 0.994024L35.9032 3.88162C36.1831 4.29153 36.2088 4.81561 35.9707 5.25012C35.7327 5.68464 35.2706 5.95431 34.7657 5.95431H26.2799V6.79086H30.626C31.7781 6.79086 32.8146 7.45863 33.2666 8.49251L35.8113 14.311L38.0404 15.181C39.2308 15.6456 40 16.7537 40 18.0046V23.393C40 24.1966 39.3296 24.8506 38.5059 24.8506H35.9122C35.6106 26.6344 34.0187 28 32.1059 28C30.1932 28 28.6013 26.6344 28.2996 24.8506H14.1216C13.8199 26.6344 12.228 28 10.3153 28C8.40252 28 6.81059 26.6344 6.50895 24.8506H1.32812C0.595715 24.8506 0 24.2695 0 23.5549V3.80091C0 2.57315 1.02345 1.57469 2.28197 1.57469ZM32.1059 26.7698C33.5385 26.7698 34.7037 25.633 34.7037 24.2355C34.7037 22.838 33.5385 21.7012 32.1059 21.7012C30.6734 21.7012 29.5082 22.838 29.5082 24.2355C29.5082 25.633 30.6734 26.7698 32.1059 26.7698ZM26.2799 23.6204H28.2986C28.3037 23.5894 28.3102 23.5594 28.3163 23.5289C28.3203 23.5082 28.3238 23.4875 28.3284 23.4669C28.3385 23.4186 28.3501 23.3709 28.3622 23.3232C28.3647 23.3133 28.3667 23.3035 28.3697 23.2936C28.3849 23.2361 28.4015 23.1795 28.4192 23.1234C28.4242 23.1071 28.4303 23.0909 28.4358 23.0742C28.4489 23.0348 28.4625 22.9954 28.4767 22.9566C28.4847 22.9359 28.4928 22.9152 28.5014 22.8946C28.5145 22.8606 28.5276 22.8266 28.5422 22.7932C28.5513 22.771 28.5614 22.7494 28.5715 22.7277C28.5856 22.6957 28.5997 22.6647 28.6149 22.6333C28.626 22.6111 28.6366 22.5895 28.6482 22.5673C28.6633 22.5373 28.6794 22.5068 28.6956 22.4773C28.7072 22.4556 28.7193 22.434 28.7314 22.4123C28.748 22.3828 28.7657 22.3533 28.7834 22.3242C28.796 22.3035 28.8086 22.2829 28.8212 22.2622C28.8404 22.2327 28.8595 22.2037 28.8792 22.1741C28.8923 22.1549 28.9049 22.1357 28.918 22.117C28.9397 22.086 28.9624 22.0555 28.9856 22.025C28.9972 22.0088 29.0088 21.9925 29.0209 21.9768C29.0522 21.9364 29.084 21.8976 29.1163 21.8587C29.1208 21.8528 29.1253 21.8469 29.1304 21.841C29.1677 21.7967 29.2066 21.7534 29.2459 21.7111C29.258 21.6978 29.2706 21.6855 29.2832 21.6727C29.311 21.6437 29.3387 21.6146 29.3675 21.5861C29.3836 21.5703 29.4003 21.5551 29.4164 21.5398C29.4421 21.5152 29.4683 21.4906 29.4951 21.4665C29.5127 21.4508 29.5309 21.435 29.5491 21.4193C29.5753 21.3966 29.6015 21.3745 29.6282 21.3523L29.6858 21.3066C29.7125 21.2854 29.7397 21.2647 29.767 21.2441C29.7866 21.2293 29.8068 21.2146 29.827 21.2003C29.8547 21.1801 29.883 21.1609 29.9117 21.1412C29.9319 21.1279 29.9521 21.1142 29.9723 21.1009C30.002 21.0812 30.0328 21.0625 30.0631 21.0438C30.0827 21.032 30.1024 21.0197 30.1226 21.0079C30.1559 20.9882 30.1902 20.9695 30.2245 20.9508C30.2421 20.941 30.2593 20.9311 30.2764 20.9218C30.3253 20.8962 30.3743 20.8716 30.4237 20.8479C30.4277 20.8465 30.4313 20.8445 30.4353 20.8425C30.4888 20.8174 30.5433 20.7933 30.5977 20.7707C30.6154 20.7633 30.6335 20.7569 30.6512 20.7495C30.6885 20.7348 30.7264 20.72 30.7647 20.7057C30.7864 20.6979 30.8086 20.691 30.8303 20.6831C30.8651 20.6713 30.8999 20.6595 30.9352 20.6486C30.9589 20.6413 30.9826 20.6344 31.0068 20.6275C31.0411 20.6176 31.0754 20.6078 31.1097 20.5989C31.1344 20.5925 31.1591 20.5862 31.1844 20.5802C31.2187 20.5719 31.253 20.5645 31.2878 20.5571C31.313 20.5517 31.3382 20.5463 31.3639 20.5414C31.3992 20.535 31.4346 20.5286 31.4704 20.5232C31.4956 20.5187 31.5203 20.5148 31.546 20.5114C31.5828 20.5059 31.6202 20.5015 31.658 20.4971C31.6817 20.4946 31.7059 20.4912 31.7301 20.4892C31.7715 20.4853 31.8134 20.4823 31.8552 20.4799C31.8759 20.4784 31.8961 20.4764 31.9168 20.4759C31.9798 20.4725 32.0424 20.471 32.1059 20.471C32.1695 20.471 32.232 20.4725 32.2951 20.4759C32.3158 20.4764 32.3359 20.4784 32.3566 20.4799C32.3985 20.4823 32.4404 20.4853 32.4817 20.4892C32.5059 20.4912 32.5301 20.4946 32.5538 20.4971C32.5917 20.5015 32.629 20.5059 32.6658 20.5114C32.6916 20.5148 32.7163 20.5187 32.7415 20.5232C32.7773 20.5286 32.8126 20.535 32.8479 20.5414C32.8736 20.5463 32.8989 20.5517 32.9241 20.5571C32.9589 20.5645 32.9932 20.5719 33.0275 20.5802C33.0527 20.5862 33.0774 20.5925 33.1021 20.5989C33.1364 20.6078 33.1707 20.6176 33.205 20.6275C33.2293 20.6344 33.253 20.6413 33.2767 20.6486C33.312 20.6595 33.3468 20.6713 33.3816 20.6831C33.4033 20.691 33.4255 20.6979 33.4472 20.7057C33.4855 20.72 33.5233 20.7348 33.5607 20.7495C33.5783 20.7569 33.5965 20.7633 33.6141 20.7707C33.6686 20.7933 33.7231 20.8174 33.7765 20.8425C33.7806 20.8445 33.7841 20.8465 33.7881 20.8479C33.8376 20.8716 33.8865 20.8962 33.9354 20.9218C33.9526 20.9311 33.9697 20.941 33.9874 20.9508C34.0217 20.9695 34.056 20.9882 34.0893 21.0079C34.1095 21.0197 34.1291 21.032 34.1488 21.0438C34.1791 21.0625 34.2098 21.0812 34.2396 21.1009C34.2598 21.1142 34.2799 21.1279 34.3001 21.1412C34.3289 21.1609 34.3571 21.1801 34.3849 21.2003C34.405 21.2146 34.4252 21.2293 34.4449 21.2441C34.4721 21.2647 34.4994 21.2854 34.5261 21.3066L34.5836 21.3523C34.6103 21.3745 34.6366 21.3966 34.6628 21.4193C34.681 21.435 34.6991 21.4508 34.7168 21.4665C34.7435 21.4906 34.7697 21.5152 34.7955 21.5398C34.8116 21.5551 34.8282 21.5703 34.8444 21.5861C34.8731 21.6146 34.9009 21.6437 34.9286 21.6727C34.9412 21.6855 34.9538 21.6978 34.966 21.7111C35.0053 21.7534 35.0441 21.7967 35.0815 21.841C35.0865 21.8469 35.091 21.8528 35.0956 21.8587C35.1279 21.8976 35.1596 21.9364 35.1909 21.9768C35.203 21.9925 35.2146 22.0088 35.2262 22.025C35.2494 22.0555 35.2721 22.086 35.2938 22.117C35.3069 22.1357 35.3195 22.1549 35.3327 22.1741C35.3523 22.2037 35.3715 22.2327 35.3907 22.2622C35.4033 22.2829 35.4159 22.3035 35.4285 22.3242C35.4462 22.3533 35.4638 22.3828 35.4805 22.4123C35.4926 22.434 35.5047 22.4556 35.5163 22.4773C35.5324 22.5068 35.5486 22.5373 35.5637 22.5673C35.5753 22.5895 35.5859 22.6111 35.597 22.6333C35.6121 22.6647 35.6262 22.6957 35.6404 22.7277C35.6504 22.7494 35.6605 22.771 35.6696 22.7932C35.6842 22.8266 35.6974 22.8606 35.7105 22.8946C35.719 22.9152 35.7271 22.9359 35.7352 22.9566C35.7493 22.9954 35.7629 23.0348 35.776 23.0742C35.7816 23.0909 35.7876 23.1071 35.7927 23.1234C35.8103 23.1795 35.827 23.2361 35.8421 23.2936C35.8451 23.3035 35.8472 23.3133 35.8497 23.3232C35.8618 23.3709 35.8734 23.4186 35.8835 23.4669C35.888 23.4875 35.8916 23.5082 35.8956 23.5289C35.9016 23.5594 35.9082 23.5894 35.9132 23.6204H38.5059C38.6346 23.6204 38.739 23.5185 38.739 23.393V20.8155H37.7554V19.5852H38.739V18.0046C38.739 17.2596 38.281 16.5997 37.5723 16.3232L35.2126 15.4025H26.2799V23.6204ZM26.2799 14.1722H34.3798L32.1069 8.97526C31.8532 8.39557 31.2721 8.02109 30.626 8.02109H26.2799V14.1722ZM10.3153 26.7698C11.7478 26.7698 12.913 25.633 12.913 24.2355C12.913 22.838 11.7478 21.7012 10.3153 21.7012C10.2704 21.7012 10.226 21.7022 10.1816 21.7047C8.98815 21.7637 8.00454 22.6131 7.77049 23.7252C7.76192 23.7665 7.75385 23.8084 7.74729 23.8502C7.73418 23.9338 7.7256 24.019 7.72106 24.1051C7.71854 24.1484 7.71753 24.1917 7.71753 24.2355C7.71753 25.633 8.88272 26.7698 10.3153 26.7698ZM1.26103 19.5852H2.24464V20.8155H1.26103V23.5549C1.26103 23.5909 1.2913 23.6204 1.32812 23.6204H6.50795C6.51299 23.5899 6.51955 23.5599 6.5256 23.5298C6.52963 23.5087 6.53316 23.4875 6.5377 23.4664C6.54779 23.4191 6.55889 23.3724 6.571 23.3261C6.57402 23.3153 6.57604 23.304 6.57907 23.2931C6.5942 23.2361 6.61084 23.18 6.6285 23.1239C6.63404 23.1066 6.6401 23.0894 6.64565 23.0727C6.65876 23.0338 6.67188 22.9949 6.686 22.957C6.69407 22.9354 6.70265 22.9147 6.71072 22.8936C6.72383 22.8601 6.73745 22.8266 6.75107 22.7937C6.76066 22.771 6.77074 22.7489 6.78083 22.7268C6.79496 22.6957 6.80908 22.6647 6.82421 22.6337C6.8348 22.6111 6.84641 22.589 6.8575 22.5668C6.87263 22.5368 6.88827 22.5073 6.90442 22.4773C6.91652 22.4556 6.92862 22.434 6.94073 22.4123C6.95788 22.3828 6.97503 22.3537 6.99269 22.3247C7.00529 22.3036 7.01791 22.2829 7.03102 22.2622C7.04969 22.2327 7.06886 22.2037 7.08853 22.1751C7.10114 22.1554 7.11425 22.1357 7.12737 22.117C7.14906 22.086 7.17175 22.056 7.19395 22.026C7.20605 22.0093 7.21816 21.9925 7.23077 21.9763C7.26103 21.9374 7.29181 21.8991 7.32358 21.8612C7.32913 21.8543 7.33418 21.8474 7.33972 21.841C7.37756 21.7967 7.41589 21.7534 7.45523 21.7111C7.46784 21.6978 7.48045 21.685 7.49306 21.6717C7.52081 21.6427 7.54855 21.6141 7.5768 21.5861C7.59294 21.5703 7.60958 21.5551 7.62623 21.5393C7.65195 21.5147 7.67768 21.4906 7.70441 21.4665C7.72207 21.4508 7.74073 21.435 7.75889 21.4188C7.78461 21.3966 7.81084 21.3745 7.83758 21.3528C7.85675 21.3371 7.87592 21.3213 7.89559 21.3061C7.92182 21.2854 7.94905 21.2647 7.97629 21.2441C7.99596 21.2293 8.01614 21.2146 8.03632 21.2003C8.06406 21.1801 8.09231 21.1609 8.12055 21.1417C8.14124 21.1279 8.16141 21.1142 8.18159 21.1009C8.21135 21.0812 8.24161 21.0625 8.27188 21.0443C8.29206 21.032 8.31173 21.0197 8.3319 21.0079C8.36519 20.9882 8.39899 20.9695 8.43329 20.9508C8.45095 20.941 8.4681 20.9311 8.48625 20.9218C8.53417 20.8962 8.5826 20.8721 8.63203 20.8489C8.63607 20.847 8.6401 20.8445 8.64464 20.8425C8.69811 20.8174 8.75258 20.7933 8.80706 20.7707C8.82471 20.7633 8.84287 20.7569 8.86053 20.7495C8.89836 20.7348 8.93569 20.72 8.97402 20.7057C8.99571 20.6979 9.0179 20.691 9.0401 20.6831C9.0744 20.6713 9.10921 20.6595 9.14451 20.6486C9.16822 20.6413 9.19243 20.6344 9.21614 20.6275C9.25044 20.6176 9.28474 20.6078 9.31904 20.5989C9.34376 20.5925 9.36847 20.5862 9.39369 20.5802C9.42799 20.5719 9.4623 20.5645 9.4971 20.5571C9.52232 20.5517 9.54754 20.5463 9.57327 20.5414C9.60857 20.535 9.64388 20.5286 9.6797 20.5232C9.70492 20.5187 9.72964 20.5148 9.75536 20.5114C9.79218 20.5059 9.82951 20.5015 9.86734 20.4971C9.89105 20.4946 9.91526 20.4912 9.93947 20.4892C9.98083 20.4853 10.0227 20.4823 10.0646 20.4799C10.0852 20.4784 10.1054 20.4764 10.1261 20.4759C10.1892 20.4725 10.2517 20.471 10.3153 20.471C10.3788 20.471 10.4414 20.4725 10.5044 20.4759C10.5251 20.4764 10.5453 20.4784 10.566 20.4799C10.6078 20.4823 10.6497 20.4853 10.691 20.4892C10.7153 20.4912 10.7395 20.4946 10.7632 20.4971C10.801 20.5015 10.8383 20.5059 10.8752 20.5114C10.9009 20.5148 10.9256 20.5187 10.9508 20.5232C10.9866 20.5286 11.0219 20.535 11.0573 20.5414C11.083 20.5463 11.1082 20.5517 11.1334 20.5571C11.1682 20.5645 11.2025 20.5719 11.2368 20.5802C11.262 20.5862 11.2868 20.5925 11.3115 20.5989C11.3458 20.6078 11.3801 20.6176 11.4144 20.6275C11.4381 20.6344 11.4623 20.6413 11.486 20.6486C11.5213 20.6595 11.5561 20.6713 11.5904 20.6831C11.6126 20.691 11.6348 20.6979 11.6565 20.7057C11.6948 20.72 11.7322 20.7348 11.77 20.7495C11.7876 20.7569 11.8058 20.7633 11.8235 20.7707C11.8779 20.7933 11.9324 20.8174 11.9859 20.8425C11.9904 20.8445 11.9945 20.8465 11.9985 20.8489C12.0479 20.8721 12.0963 20.8962 12.1443 20.9218C12.1624 20.9311 12.1796 20.941 12.1972 20.9508C12.231 20.9695 12.2653 20.9882 12.2986 21.0079C12.3188 21.0197 12.3385 21.032 12.3586 21.0443C12.3889 21.0625 12.4192 21.0812 12.4489 21.1009C12.4691 21.1142 12.4893 21.1279 12.51 21.1417C12.5382 21.1609 12.5665 21.1801 12.5942 21.2003C12.6144 21.2146 12.6346 21.2293 12.6542 21.2441C12.6815 21.2647 12.7087 21.2854 12.7349 21.3061C12.7546 21.3213 12.7738 21.3371 12.7929 21.3528C12.8197 21.3745 12.8459 21.3966 12.8716 21.4193C12.8898 21.435 12.9084 21.4508 12.9261 21.4665C12.9528 21.4906 12.9786 21.5152 13.0048 21.5398C13.0209 21.5551 13.0376 21.5703 13.0537 21.5861C13.082 21.6141 13.1102 21.6432 13.138 21.6722C13.1501 21.685 13.1632 21.6978 13.1753 21.7111C13.2146 21.7534 13.253 21.7967 13.2908 21.841C13.2958 21.8474 13.3009 21.8538 13.3059 21.8597C13.3377 21.8981 13.3695 21.9369 13.3997 21.9768C13.4124 21.9925 13.424 22.0088 13.4361 22.025C13.4588 22.0555 13.4815 22.086 13.5032 22.117C13.5163 22.1357 13.5289 22.1554 13.542 22.1746C13.5617 22.2037 13.5808 22.2327 13.5995 22.2622C13.6126 22.2829 13.6252 22.3035 13.6378 22.3242C13.6555 22.3533 13.6731 22.3828 13.6898 22.4123C13.7019 22.434 13.714 22.4556 13.7256 22.4773C13.7422 22.5068 13.7579 22.5373 13.7735 22.5673C13.7846 22.5895 13.7952 22.6111 13.8063 22.6333C13.8214 22.6647 13.8356 22.6962 13.8497 22.7277C13.8598 22.7494 13.8699 22.771 13.8789 22.7932C13.8936 22.8266 13.9067 22.8606 13.9203 22.8946C13.9284 22.9152 13.9364 22.9359 13.9445 22.9566C13.9591 22.9959 13.9723 23.0353 13.9854 23.0751C13.9909 23.0914 13.997 23.1071 14.002 23.1234C14.0197 23.1795 14.0363 23.2366 14.052 23.2936C14.054 23.3025 14.056 23.3118 14.058 23.3207C14.0706 23.3694 14.0822 23.4181 14.0928 23.4673C14.0974 23.487 14.1009 23.5072 14.1044 23.5274C14.1105 23.5584 14.117 23.5889 14.1226 23.6204H25.0189V5.33919C25.0189 4.99965 25.3014 4.72408 25.6494 4.72408H34.7657C34.7813 4.72408 34.8293 4.72408 34.859 4.66946C34.8888 4.61533 34.8625 4.57645 34.8535 4.56415L32.8807 1.67656C32.6895 1.39705 32.3702 1.23023 32.0257 1.23023H15.5612C15.4694 1.23023 15.3831 1.26517 15.318 1.32865L14.2749 2.34629C13.9718 2.64204 13.5687 2.80492 13.14 2.80492H2.28197C1.71904 2.80492 1.26103 3.25174 1.26103 3.80091V19.5852Z" fill="#101828"></path>
    <path d="M17.6013 6.2981H21.5897C22.3953 6.2981 23.051 6.93732 23.051 7.72368V20.8886C23.051 21.2281 22.7686 21.5037 22.4205 21.5037H16.7711C16.423 21.5037 16.1406 21.2281 16.1406 20.8886V7.72368C16.1401 6.93732 16.7953 6.2981 17.6013 6.2981ZM17.4011 20.2735H21.7895V13.0397H17.4011V20.2735ZM17.4011 11.8095H21.7895V7.72368C21.7895 7.61592 21.6997 7.52832 21.5892 7.52832H17.6008C17.4904 7.52832 17.4006 7.61592 17.4006 7.72368L17.4011 11.8095Z" fill="#101828"></path>
  </symbol>
  <symbol fill="none" xmlns="http://www.w3.org/2000/svg" viewBox="0 0 40 28" id="alcove">
    <path d="M2.28197 1.57469H13.14C13.2318 1.57469 13.318 1.53975 13.3831 1.47627L14.4262 0.45863C14.7294 0.162883 15.1324 0 15.5612 0H32.0257C32.7924 0 33.5042 0.371529 33.9299 0.994024L35.9032 3.88162C36.1831 4.29153 36.2088 4.81561 35.9707 5.25012C35.7327 5.68464 35.2706 5.95431 34.7657 5.95431H26.2799V6.79086H30.626C31.7781 6.79086 32.8146 7.45863 33.2666 8.49251L35.8113 14.311L38.0404 15.181C39.2308 15.6456 40 16.7537 40 18.0046V23.393C40 24.1966 39.3296 24.8506 38.5059 24.8506H35.9122C35.6106 26.6344 34.0187 28 32.1059 28C30.1932 28 28.6013 26.6344 28.2996 24.8506H14.1216C13.8199 26.6344 12.228 28 10.3153 28C8.40252 28 6.81059 26.6344 6.50895 24.8506H1.32812C0.595715 24.8506 0 24.2695 0 23.5549V3.80091C0 2.57315 1.02345 1.57469 2.28197 1.57469ZM32.1059 26.7698C33.5385 26.7698 34.7037 25.633 34.7037 24.2355C34.7037 22.838 33.5385 21.7012 32.1059 21.7012C30.6734 21.7012 29.5082 22.838 29.5082 24.2355C29.5082 25.633 30.6734 26.7698 32.1059 26.7698ZM26.2799 23.6204H28.2986C28.3037 23.5894 28.3102 23.5594 28.3163 23.5289C28.3203 23.5082 28.3238 23.4875 28.3284 23.4669C28.3385 23.4186 28.3501 23.3709 28.3622 23.3232C28.3647 23.3133 28.3667 23.3035 28.3697 23.2936C28.3849 23.2361 28.4015 23.1795 28.4192 23.1234C28.4242 23.1071 28.4303 23.0909 28.4358 23.0742C28.4489 23.0348 28.4625 22.9954 28.4767 22.9566C28.4847 22.9359 28.4928 22.9152 28.5014 22.8946C28.5145 22.8606 28.5276 22.8266 28.5422 22.7932C28.5513 22.771 28.5614 22.7494 28.5715 22.7277C28.5856 22.6957 28.5997 22.6647 28.6149 22.6333C28.626 22.6111 28.6366 22.5895 28.6482 22.5673C28.6633 22.5373 28.6794 22.5068 28.6956 22.4773C28.7072 22.4556 28.7193 22.434 28.7314 22.4123C28.748 22.3828 28.7657 22.3533 28.7834 22.3242C28.796 22.3035 28.8086 22.2829 28.8212 22.2622C28.8404 22.2327 28.8595 22.2037 28.8792 22.1741C28.8923 22.1549 28.9049 22.1357 28.918 22.117C28.9397 22.086 28.9624 22.0555 28.9856 22.025C28.9972 22.0088 29.0088 21.9925 29.0209 21.9768C29.0522 21.9364 29.084 21.8976 29.1163 21.8587C29.1208 21.8528 29.1253 21.8469 29.1304 21.841C29.1677 21.7967 29.2066 21.7534 29.2459 21.7111C29.258 21.6978 29.2706 21.6855 29.2832 21.6727C29.311 21.6437 29.3387 21.6146 29.3675 21.5861C29.3836 21.5703 29.4003 21.5551 29.4164 21.5398C29.4421 21.5152 29.4683 21.4906 29.4951 21.4665C29.5127 21.4508 29.5309 21.435 29.5491 21.4193C29.5753 21.3966 29.6015 21.3745 29.6282 21.3523L29.6858 21.3066C29.7125 21.2854 29.7397 21.2647 29.767 21.2441C29.7866 21.2293 29.8068 21.2146 29.827 21.2003C29.8547 21.1801 29.883 21.1609 29.9117 21.1412C29.9319 21.1279 29.9521 21.1142 29.9723 21.1009C30.002 21.0812 30.0328 21.0625 30.0631 21.0438C30.0827 21.032 30.1024 21.0197 30.1226 21.0079C30.1559 20.9882 30.1902 20.9695 30.2245 20.9508C30.2421 20.941 30.2593 20.9311 30.2764 20.9218C30.3253 20.8962 30.3743 20.8716 30.4237 20.8479C30.4277 20.8465 30.4313 20.8445 30.4353 20.8425C30.4888 20.8174 30.5433 20.7933 30.5977 20.7707C30.6154 20.7633 30.6335 20.7569 30.6512 20.7495C30.6885 20.7348 30.7264 20.72 30.7647 20.7057C30.7864 20.6979 30.8086 20.691 30.8303 20.6831C30.8651 20.6713 30.8999 20.6595 30.9352 20.6486C30.9589 20.6413 30.9826 20.6344 31.0068 20.6275C31.0411 20.6176 31.0754 20.6078 31.1097 20.5989C31.1344 20.5925 31.1591 20.5862 31.1844 20.5802C31.2187 20.5719 31.253 20.5645 31.2878 20.5571C31.313 20.5517 31.3382 20.5463 31.3639 20.5414C31.3992 20.535 31.4346 20.5286 31.4704 20.5232C31.4956 20.5187 31.5203 20.5148 31.546 20.5114C31.5828 20.5059 31.6202 20.5015 31.658 20.4971C31.6817 20.4946 31.7059 20.4912 31.7301 20.4892C31.7715 20.4853 31.8134 20.4823 31.8552 20.4799C31.8759 20.4784 31.8961 20.4764 31.9168 20.4759C31.9798 20.4725 32.0424 20.471 32.1059 20.471C32.1695 20.471 32.232 20.4725 32.2951 20.4759C32.3158 20.4764 32.3359 20.4784 32.3566 20.4799C32.3985 20.4823 32.4404 20.4853 32.4817 20.4892C32.5059 20.4912 32.5301 20.4946 32.5538 20.4971C32.5917 20.5015 32.629 20.5059 32.6658 20.5114C32.6916 20.5148 32.7163 20.5187 32.7415 20.5232C32.7773 20.5286 32.8126 20.535 32.8479 20.5414C32.8736 20.5463 32.8989 20.5517 32.9241 20.5571C32.9589 20.5645 32.9932 20.5719 33.0275 20.5802C33.0527 20.5862 33.0774 20.5925 33.1021 20.5989C33.1364 20.6078 33.1707 20.6176 33.205 20.6275C33.2293 20.6344 33.253 20.6413 33.2767 20.6486C33.312 20.6595 33.3468 20.6713 33.3816 20.6831C33.4033 20.691 33.4255 20.6979 33.4472 20.7057C33.4855 20.72 33.5233 20.7348 33.5607 20.7495C33.5783 20.7569 33.5965 20.7633 33.6141 20.7707C33.6686 20.7933 33.7231 20.8174 33.7765 20.8425C33.7806 20.8445 33.7841 20.8465 33.7881 20.8479C33.8376 20.8716 33.8865 20.8962 33.9354 20.9218C33.9526 20.9311 33.9697 20.941 33.9874 20.9508C34.0217 20.9695 34.056 20.9882 34.0893 21.0079C34.1095 21.0197 34.1291 21.032 34.1488 21.0438C34.1791 21.0625 34.2098 21.0812 34.2396 21.1009C34.2598 21.1142 34.2799 21.1279 34.3001 21.1412C34.3289 21.1609 34.3571 21.1801 34.3849 21.2003C34.405 21.2146 34.4252 21.2293 34.4449 21.2441C34.4721 21.2647 34.4994 21.2854 34.5261 21.3066L34.5836 21.3523C34.6103 21.3745 34.6366 21.3966 34.6628 21.4193C34.681 21.435 34.6991 21.4508 34.7168 21.4665C34.7435 21.4906 34.7697 21.5152 34.7955 21.5398C34.8116 21.5551 34.8282 21.5703 34.8444 21.5861C34.8731 21.6146 34.9009 21.6437 34.9286 21.6727C34.9412 21.6855 34.9538 21.6978 34.966 21.7111C35.0053 21.7534 35.0441 21.7967 35.0815 21.841C35.0865 21.8469 35.091 21.8528 35.0956 21.8587C35.1279 21.8976 35.1596 21.9364 35.1909 21.9768C35.203 21.9925 35.2146 22.0088 35.2262 22.025C35.2494 22.0555 35.2721 22.086 35.2938 22.117C35.3069 22.1357 35.3195 22.1549 35.3327 22.1741C35.3523 22.2037 35.3715 22.2327 35.3907 22.2622C35.4033 22.2829 35.4159 22.3035 35.4285 22.3242C35.4462 22.3533 35.4638 22.3828 35.4805 22.4123C35.4926 22.434 35.5047 22.4556 35.5163 22.4773C35.5324 22.5068 35.5486 22.5373 35.5637 22.5673C35.5753 22.5895 35.5859 22.6111 35.597 22.6333C35.6121 22.6647 35.6262 22.6957 35.6404 22.7277C35.6504 22.7494 35.6605 22.771 35.6696 22.7932C35.6842 22.8266 35.6974 22.8606 35.7105 22.8946C35.719 22.9152 35.7271 22.9359 35.7352 22.9566C35.7493 22.9954 35.7629 23.0348 35.776 23.0742C35.7816 23.0909 35.7876 23.1071 35.7927 23.1234C35.8103 23.1795 35.827 23.2361 35.8421 23.2936C35.8451 23.3035 35.8472 23.3133 35.8497 23.3232C35.8618 23.3709 35.8734 23.4186 35.8835 23.4669C35.888 23.4875 35.8916 23.5082 35.8956 23.5289C35.9016 23.5594 35.9082 23.5894 35.9132 23.6204H38.5059C38.6346 23.6204 38.739 23.5185 38.739 23.393V20.8155H37.7554V19.5852H38.739V18.0046C38.739 17.2596 38.281 16.5997 37.5723 16.3232L35.2126 15.4025H26.2799V23.6204ZM26.2799 14.1722H34.3798L32.1069 8.97526C31.8532 8.39557 31.2721 8.02109 30.626 8.02109H26.2799V14.1722ZM10.3153 26.7698C11.7478 26.7698 12.913 25.633 12.913 24.2355C12.913 22.838 11.7478 21.7012 10.3153 21.7012C10.2704 21.7012 10.226 21.7022 10.1816 21.7047C8.98815 21.7637 8.00454 22.6131 7.77049 23.7252C7.76192 23.7665 7.75385 23.8084 7.74729 23.8502C7.73418 23.9338 7.7256 24.019 7.72106 24.1051C7.71854 24.1484 7.71753 24.1917 7.71753 24.2355C7.71753 25.633 8.88272 26.7698 10.3153 26.7698ZM1.26103 19.5852H2.24464V20.8155H1.26103V23.5549C1.26103 23.5909 1.2913 23.6204 1.32812 23.6204H6.50795C6.51299 23.5899 6.51955 23.5599 6.5256 23.5298C6.52963 23.5087 6.53316 23.4875 6.5377 23.4664C6.54779 23.4191 6.55889 23.3724 6.571 23.3261C6.57402 23.3153 6.57604 23.304 6.57907 23.2931C6.5942 23.2361 6.61084 23.18 6.6285 23.1239C6.63404 23.1066 6.6401 23.0894 6.64565 23.0727C6.65876 23.0338 6.67188 22.9949 6.686 22.957C6.69407 22.9354 6.70265 22.9147 6.71072 22.8936C6.72383 22.8601 6.73745 22.8266 6.75107 22.7937C6.76066 22.771 6.77074 22.7489 6.78083 22.7268C6.79496 22.6957 6.80908 22.6647 6.82421 22.6337C6.8348 22.6111 6.84641 22.589 6.8575 22.5668C6.87263 22.5368 6.88827 22.5073 6.90442 22.4773C6.91652 22.4556 6.92862 22.434 6.94073 22.4123C6.95788 22.3828 6.97503 22.3537 6.99269 22.3247C7.00529 22.3036 7.01791 22.2829 7.03102 22.2622C7.04969 22.2327 7.06886 22.2037 7.08853 22.1751C7.10114 22.1554 7.11425 22.1357 7.12737 22.117C7.14906 22.086 7.17175 22.056 7.19395 22.026C7.20605 22.0093 7.21816 21.9925 7.23077 21.9763C7.26103 21.9374 7.29181 21.8991 7.32358 21.8612C7.32913 21.8543 7.33418 21.8474 7.33972 21.841C7.37756 21.7967 7.41589 21.7534 7.45523 21.7111C7.46784 21.6978 7.48045 21.685 7.49306 21.6717C7.52081 21.6427 7.54855 21.6141 7.5768 21.5861C7.59294 21.5703 7.60958 21.5551 7.62623 21.5393C7.65195 21.5147 7.67768 21.4906 7.70441 21.4665C7.72207 21.4508 7.74073 21.435 7.75889 21.4188C7.78461 21.3966 7.81084 21.3745 7.83758 21.3528C7.85675 21.3371 7.87592 21.3213 7.89559 21.3061C7.92182 21.2854 7.94905 21.2647 7.97629 21.2441C7.99596 21.2293 8.01614 21.2146 8.03632 21.2003C8.06406 21.1801 8.09231 21.1609 8.12055 21.1417C8.14124 21.1279 8.16141 21.1142 8.18159 21.1009C8.21135 21.0812 8.24161 21.0625 8.27188 21.0443C8.29206 21.032 8.31173 21.0197 8.3319 21.0079C8.36519 20.9882 8.39899 20.9695 8.43329 20.9508C8.45095 20.941 8.4681 20.9311 8.48625 20.9218C8.53417 20.8962 8.5826 20.8721 8.63203 20.8489C8.63607 20.847 8.6401 20.8445 8.64464 20.8425C8.69811 20.8174 8.75258 20.7933 8.80706 20.7707C8.82471 20.7633 8.84287 20.7569 8.86053 20.7495C8.89836 20.7348 8.93569 20.72 8.97402 20.7057C8.99571 20.6979 9.0179 20.691 9.0401 20.6831C9.0744 20.6713 9.10921 20.6595 9.14451 20.6486C9.16822 20.6413 9.19243 20.6344 9.21614 20.6275C9.25044 20.6176 9.28474 20.6078 9.31904 20.5989C9.34376 20.5925 9.36847 20.5862 9.39369 20.5802C9.42799 20.5719 9.4623 20.5645 9.4971 20.5571C9.52232 20.5517 9.54754 20.5463 9.57327 20.5414C9.60857 20.535 9.64388 20.5286 9.6797 20.5232C9.70492 20.5187 9.72964 20.5148 9.75536 20.5114C9.79218 20.5059 9.82951 20.5015 9.86734 20.4971C9.89105 20.4946 9.91526 20.4912 9.93947 20.4892C9.98083 20.4853 10.0227 20.4823 10.0646 20.4799C10.0852 20.4784 10.1054 20.4764 10.1261 20.4759C10.1892 20.4725 10.2517 20.471 10.3153 20.471C10.3788 20.471 10.4414 20.4725 10.5044 20.4759C10.5251 20.4764 10.5453 20.4784 10.566 20.4799C10.6078 20.4823 10.6497 20.4853 10.691 20.4892C10.7153 20.4912 10.7395 20.4946 10.7632 20.4971C10.801 20.5015 10.8383 20.5059 10.8752 20.5114C10.9009 20.5148 10.9256 20.5187 10.9508 20.5232C10.9866 20.5286 11.0219 20.535 11.0573 20.5414C11.083 20.5463 11.1082 20.5517 11.1334 20.5571C11.1682 20.5645 11.2025 20.5719 11.2368 20.5802C11.262 20.5862 11.2868 20.5925 11.3115 20.5989C11.3458 20.6078 11.3801 20.6176 11.4144 20.6275C11.4381 20.6344 11.4623 20.6413 11.486 20.6486C11.5213 20.6595 11.5561 20.6713 11.5904 20.6831C11.6126 20.691 11.6348 20.6979 11.6565 20.7057C11.6948 20.72 11.7322 20.7348 11.77 20.7495C11.7876 20.7569 11.8058 20.7633 11.8235 20.7707C11.8779 20.7933 11.9324 20.8174 11.9859 20.8425C11.9904 20.8445 11.9945 20.8465 11.9985 20.8489C12.0479 20.8721 12.0963 20.8962 12.1443 20.9218C12.1624 20.9311 12.1796 20.941 12.1972 20.9508C12.231 20.9695 12.2653 20.9882 12.2986 21.0079C12.3188 21.0197 12.3385 21.032 12.3586 21.0443C12.3889 21.0625 12.4192 21.0812 12.4489 21.1009C12.4691 21.1142 12.4893 21.1279 12.51 21.1417C12.5382 21.1609 12.5665 21.1801 12.5942 21.2003C12.6144 21.2146 12.6346 21.2293 12.6542 21.2441C12.6815 21.2647 12.7087 21.2854 12.7349 21.3061C12.7546 21.3213 12.7738 21.3371 12.7929 21.3528C12.8197 21.3745 12.8459 21.3966 12.8716 21.4193C12.8898 21.435 12.9084 21.4508 12.9261 21.4665C12.9528 21.4906 12.9786 21.5152 13.0048 21.5398C13.0209 21.5551 13.0376 21.5703 13.0537 21.5861C13.082 21.6141 13.1102 21.6432 13.138 21.6722C13.1501 21.685 13.1632 21.6978 13.1753 21.7111C13.2146 21.7534 13.253 21.7967 13.2908 21.841C13.2958 21.8474 13.3009 21.8538 13.3059 21.8597C13.3377 21.8981 13.3695 21.9369 13.3997 21.9768C13.4124 21.9925 13.424 22.0088 13.4361 22.025C13.4588 22.0555 13.4815 22.086 13.5032 22.117C13.5163 22.1357 13.5289 22.1554 13.542 22.1746C13.5617 22.2037 13.5808 22.2327 13.5995 22.2622C13.6126 22.2829 13.6252 22.3035 13.6378 22.3242C13.6555 22.3533 13.6731 22.3828 13.6898 22.4123C13.7019 22.434 13.714 22.4556 13.7256 22.4773C13.7422 22.5068 13.7579 22.5373 13.7735 22.5673C13.7846 22.5895 13.7952 22.6111 13.8063 22.6333C13.8214 22.6647 13.8356 22.6962 13.8497 22.7277C13.8598 22.7494 13.8699 22.771 13.8789 22.7932C13.8936 22.8266 13.9067 22.8606 13.9203 22.8946C13.9284 22.9152 13.9364 22.9359 13.9445 22.9566C13.9591 22.9959 13.9723 23.0353 13.9854 23.0751C13.9909 23.0914 13.997 23.1071 14.002 23.1234C14.0197 23.1795 14.0363 23.2366 14.052 23.2936C14.054 23.3025 14.056 23.3118 14.058 23.3207C14.0706 23.3694 14.0822 23.4181 14.0928 23.4673C14.0974 23.487 14.1009 23.5072 14.1044 23.5274C14.1105 23.5584 14.117 23.5889 14.1226 23.6204H25.0189V5.33919C25.0189 4.99965 25.3014 4.72408 25.6494 4.72408H34.7657C34.7813 4.72408 34.8293 4.72408 34.859 4.66946C34.8888 4.61533 34.8625 4.57645 34.8535 4.56415L32.8807 1.67656C32.6895 1.39705 32.3702 1.23023 32.0257 1.23023H15.5612C15.4694 1.23023 15.3831 1.26517 15.318 1.32865L14.2749 2.34629C13.9718 2.64204 13.5687 2.80492 13.14 2.80492H2.28197C1.71904 2.80492 1.26103 3.25174 1.26103 3.80091V19.5852Z" fill="#101828"></path>
    <path d="M17.6013 6.2981H21.5897C22.3953 6.2981 23.051 6.93732 23.051 7.72368V20.8886C23.051 21.2281 22.7686 21.5037 22.4205 21.5037H16.7711C16.423 21.5037 16.1406 21.2281 16.1406 20.8886V7.72368C16.1401 6.93732 16.7953 6.2981 17.6013 6.2981ZM17.4011 20.2735H21.7895V13.0397H17.4011V20.2735ZM17.4011 11.8095H21.7895V7.72368C21.7895 7.61592 21.6997 7.52832 21.5892 7.52832H17.6008C17.4904 7.52832 17.4006 7.61592 17.4006 7.72368V11.8095H17.4011ZM4.84371 6.2981H12.5562C13.4475 6.2981 14.1728 7.00572 14.1728 7.87525V11.4631C14.1728 12.3326 13.4475 13.0402 12.5562 13.0402H4.8432C3.9519 13.0402 3.22656 12.3326 3.22656 11.4631V7.87525C3.22706 7.00572 3.95241 6.2981 4.84371 6.2981ZM4.4881 11.4626C4.4881 11.6535 4.64749 11.8095 4.84371 11.8095H12.5562C12.7524 11.8095 12.9118 11.654 12.9118 11.4626V7.87476C12.9118 7.68382 12.7524 7.52783 12.5562 7.52783H4.8432C4.64699 7.52783 4.48759 7.68333 4.48759 7.87476V11.4626H4.4881Z" fill="#101828"></path>
  </symbol>
  <symbol fill="none" xmlns="http://www.w3.org/2000/svg" viewBox="0 0 32 33" id="shower">
    <path d="M5.33325 5.83334L8.66659 9.16667M17.9999 9.16667C16.758 7.94958 15.0859 7.27178 13.3471 7.28056C11.6082 7.28934 9.94306 7.984 8.71349 9.21357C7.48391 10.4431 6.78926 12.1083 6.78048 13.8471C6.77169 15.586 7.44949 17.2581 8.66659 18.5M19.9999 7.16667L6.66659 20.5M18.6666 23.1667V23.18M13.3333 21.8333V21.8467M17.3333 17.8333V17.8467M21.3333 13.8333V13.8467M14.6666 27.1667V27.18M22.6666 19.1667V19.18M26.6666 15.1667V15.18" stroke="#101828" stroke-width="2" stroke-linecap="round" stroke-linejoin="round"></path>
  </symbol>
  <symbol fill="none" xmlns="http://www.w3.org/2000/svg" viewBox="0 0 32 33" id="TV">
    <path d="M24 26.5H8C5.784 26.5 4 24.716 4 22.5V12.5C4 10.284 5.784 8.5 8 8.5H24C26.216 8.5 28 10.284 28 12.5V22.5C28 24.716 26.216 26.5 24 26.5Z" stroke="#101828" stroke-width="1.8" stroke-linecap="round" stroke-linejoin="round"></path>
    <path d="M12 30.5H20" stroke="#101828" stroke-width="1.8" stroke-linecap="round" stroke-linejoin="round"></path>
    <path d="M16 8.5L22 2.5" stroke="#101828" stroke-width="1.8" stroke-linecap="round" stroke-linejoin="round"></path>
    <path d="M16 8.5L10 2.5" stroke="#101828" stroke-width="1.8" stroke-linecap="round" stroke-linejoin="round"></path>
  </symbol>
  <symbol fill="none" xmlns="http://www.w3.org/2000/svg" viewBox="0 0 33 33" id="kitchen">
    <path d="M25.8334 20.5V4.5C19.4121 10.6253 19.1361 15.592 19.1667 20.5H25.8334ZM25.8334 20.5V28.5H24.5001V24.5M11.1667 5.83333V28.5M7.16675 5.83333V9.83333C7.16675 10.8942 7.58818 11.9116 8.33832 12.6618C9.08847 13.4119 10.1059 13.8333 11.1667 13.8333C12.2276 13.8333 13.245 13.4119 13.9952 12.6618C14.7453 11.9116 15.1667 10.8942 15.1667 9.83333V5.83333" stroke="#101828" stroke-width="1.8" stroke-linecap="round" stroke-linejoin="round"></path>
  </symbol>
  <symbol fill="none" xmlns="http://www.w3.org/2000/svg" viewBox="0 0 33 33" id="transmission">
    <path d="M23.1667 15.1667H25.1667C25.6971 15.1667 26.2058 14.956 26.5809 14.5809C26.956 14.2058 27.1667 13.6971 27.1667 13.1667C27.1667 12.6362 26.956 12.1275 26.5809 11.7525C26.2058 11.3774 25.6971 11.1667 25.1667 11.1667H23.1667V17.8333M23.1667 23.1667V28.5H24.5C25.2072 28.5 25.8855 28.219 26.3856 27.719C26.8857 27.2189 27.1667 26.5406 27.1667 25.8333C27.1667 25.1261 26.8857 24.4478 26.3856 23.9477C25.8855 23.4476 25.2072 23.1667 24.5 23.1667H23.1667ZM4.5 7.16667C4.5 7.87391 4.78095 8.55219 5.28105 9.05229C5.78115 9.55238 6.45942 9.83333 7.16667 9.83333C7.87391 9.83333 8.55219 9.55238 9.05229 9.05229C9.55238 8.55219 9.83333 7.87391 9.83333 7.16667C9.83333 6.45942 9.55238 5.78115 9.05229 5.28105C8.55219 4.78095 7.87391 4.5 7.16667 4.5C6.45942 4.5 5.78115 4.78095 5.28105 5.28105C4.78095 5.78115 4.5 6.45942 4.5 7.16667Z" stroke="#101828" stroke-width="1.8" stroke-linecap="round" stroke-linejoin="round"></path>
    <path d="M7.16675 9.83333V13.8333C7.16675 14.187 7.30722 14.5261 7.55727 14.7761C7.80732 15.0262 8.14646 15.1667 8.50008 15.1667H12.5001M12.5001 15.1667V24.5C12.5001 24.8536 12.6406 25.1928 12.8906 25.4428C13.1407 25.6929 13.4798 25.8333 13.8334 25.8333H17.8334M12.5001 15.1667H17.8334" stroke="#101828" stroke-width="1.8" stroke-linecap="round" stroke-linejoin="round"></path>
  </symbol>
  <symbol fill="none" xmlns="http://www.w3.org/2000/svg" viewBox="0 0 32 33" id="ac">
    <mask id="path-1-inside-1_3_2792" fill="white">
      <path d="M15.5537 5.3C14.2027 5.30031 12.8935 5.7805 11.8487 6.65893C10.8038 7.53736 10.0879 8.75981 9.8225 10.1185L9.7181 10.6575C9.69035 10.7781 9.68654 10.9032 9.70692 11.0253C9.7273 11.1474 9.77143 11.2641 9.8367 11.3683C9.90197 11.4726 9.98703 11.5623 10.0868 11.6321C10.1866 11.702 10.2991 11.7505 10.4175 11.7748C10.536 11.7991 10.658 11.7986 10.7763 11.7736C10.8946 11.7485 11.0067 11.6992 11.1061 11.6287C11.2054 11.5582 11.2899 11.468 11.3545 11.3633C11.4191 11.2586 11.4625 11.1416 11.4821 11.0194L11.5883 10.4822C11.7878 9.47479 12.3447 8.57922 13.1512 7.96889C13.9576 7.35856 14.9562 7.07691 15.9536 7.17849C16.9509 7.28006 17.876 7.75764 18.5497 8.51872C19.2233 9.2798 19.5976 10.2702 19.6001 11.2982C19.6001 12.4 19.1735 13.4567 18.414 14.236C17.6545 15.0153 16.6244 15.4534 15.5501 15.4538H2.5001C2.2614 15.4538 2.03248 15.5511 1.8637 15.7242C1.69492 15.8973 1.6001 16.1321 1.6001 16.3769C1.6001 16.6217 1.69492 16.8565 1.8637 17.0296C2.03248 17.2027 2.2614 17.3 2.5001 17.3H15.5501C17.0765 17.2616 18.5278 16.6129 19.5944 15.4923C20.6609 14.3716 21.2581 12.8678 21.2586 11.3018C21.259 9.73579 20.6627 8.23161 19.5969 7.11028C18.531 5.98896 17.0801 5.33932 15.5537 5.3ZM25.9001 13.6077C24.7066 13.6077 23.562 14.094 22.7181 14.9595C21.8742 15.8251 21.4001 16.999 21.4001 18.2231C21.4001 18.4679 21.4949 18.7027 21.6637 18.8758C21.8325 19.0489 22.0614 19.1462 22.3001 19.1462C22.5388 19.1462 22.7677 19.0489 22.9365 18.8758C23.1053 18.7027 23.2001 18.4679 23.2001 18.2231C23.2001 17.6754 23.3584 17.14 23.6551 16.6846C23.9518 16.2292 24.3735 15.8742 24.8669 15.6646C25.3602 15.455 25.9031 15.4002 26.4268 15.5071C26.9506 15.6139 27.4317 15.8777 27.8093 16.2649C28.1869 16.6522 28.444 17.1456 28.5482 17.6828C28.6524 18.22 28.5989 18.7768 28.3946 19.2828C28.1902 19.7888 27.8441 20.2213 27.4001 20.5256C26.9561 20.8299 26.4341 20.9923 25.9001 20.9923H2.5001C2.2614 20.9923 2.03248 21.0896 1.8637 21.2627C1.69492 21.4358 1.6001 21.6706 1.6001 21.9154C1.6001 22.1602 1.69492 22.395 1.8637 22.5681C2.03248 22.7412 2.2614 22.8385 2.5001 22.8385H20.0501C20.6468 22.8397 21.2187 23.084 21.6398 23.5176C22.0609 23.9513 22.2968 24.5387 22.2956 25.1508C22.2944 25.7628 22.0562 26.3493 21.6334 26.7812C21.2106 27.2131 20.6378 27.4551 20.0411 27.4538C19.5036 27.4542 18.9832 27.2594 18.5724 26.9039C18.1615 26.5484 17.8867 26.0552 17.7965 25.5117L17.7875 25.4563C17.7713 25.3339 17.7313 25.216 17.6699 25.1097C17.6085 25.0034 17.5269 24.9108 17.43 24.8375C17.333 24.7641 17.2227 24.7115 17.1056 24.6826C16.9884 24.6538 16.8668 24.6494 16.748 24.6697C16.6291 24.69 16.5155 24.7345 16.4137 24.8007C16.312 24.8668 16.2242 24.9533 16.1557 25.0549C16.0871 25.1565 16.0391 25.2711 16.0145 25.3921C15.99 25.5131 15.9894 25.6379 16.0127 25.7591L16.0217 25.8145C16.1817 26.7891 16.6733 27.674 17.4091 28.3121C18.145 28.9502 19.0775 29.3002 20.0411 29.3C21.1162 29.3005 22.1475 28.8633 22.9086 28.0845C23.6696 27.3056 24.0982 26.2488 24.1001 25.1462C24.1001 24.2914 23.8481 23.4975 23.4179 22.8385H25.9001C27.0936 22.8385 28.2382 22.3522 29.0821 21.4866C29.926 20.6211 30.4001 19.4472 30.4001 18.2231C30.4001 16.999 29.926 15.8251 29.0821 14.9595C28.2382 14.094 27.0936 13.6077 25.9001 13.6077Z"></path>
    </mask>
    <path d="M15.5537 5.3C14.2027 5.30031 12.8935 5.7805 11.8487 6.65893C10.8038 7.53736 10.0879 8.75981 9.8225 10.1185L9.7181 10.6575C9.69035 10.7781 9.68654 10.9032 9.70692 11.0253C9.7273 11.1474 9.77143 11.2641 9.8367 11.3683C9.90197 11.4726 9.98703 11.5623 10.0868 11.6321C10.1866 11.702 10.2991 11.7505 10.4175 11.7748C10.536 11.7991 10.658 11.7986 10.7763 11.7736C10.8946 11.7485 11.0067 11.6992 11.1061 11.6287C11.2054 11.5582 11.2899 11.468 11.3545 11.3633C11.4191 11.2586 11.4625 11.1416 11.4821 11.0194L11.5883 10.4822C11.7878 9.47479 12.3447 8.57922 13.1512 7.96889C13.9576 7.35856 14.9562 7.07691 15.9536 7.17849C16.9509 7.28006 17.876 7.75764 18.5497 8.51872C19.2233 9.2798 19.5976 10.2702 19.6001 11.2982C19.6001 12.4 19.1735 13.4567 18.414 14.236C17.6545 15.0153 16.6244 15.4534 15.5501 15.4538H2.5001C2.2614 15.4538 2.03248 15.5511 1.8637 15.7242C1.69492 15.8973 1.6001 16.1321 1.6001 16.3769C1.6001 16.6217 1.69492 16.8565 1.8637 17.0296C2.03248 17.2027 2.2614 17.3 2.5001 17.3H15.5501C17.0765 17.2616 18.5278 16.6129 19.5944 15.4923C20.6609 14.3716 21.2581 12.8678 21.2586 11.3018C21.259 9.73579 20.6627 8.23161 19.5969 7.11028C18.531 5.98896 17.0801 5.33932 15.5537 5.3ZM25.9001 13.6077C24.7066 13.6077 23.562 14.094 22.7181 14.9595C21.8742 15.8251 21.4001 16.999 21.4001 18.2231C21.4001 18.4679 21.4949 18.7027 21.6637 18.8758C21.8325 19.0489 22.0614 19.1462 22.3001 19.1462C22.5388 19.1462 22.7677 19.0489 22.9365 18.8758C23.1053 18.7027 23.2001 18.4679 23.2001 18.2231C23.2001 17.6754 23.3584 17.14 23.6551 16.6846C23.9518 16.2292 24.3735 15.8742 24.8669 15.6646C25.3602 15.455 25.9031 15.4002 26.4268 15.5071C26.9506 15.6139 27.4317 15.8777 27.8093 16.2649C28.1869 16.6522 28.444 17.1456 28.5482 17.6828C28.6524 18.22 28.5989 18.7768 28.3946 19.2828C28.1902 19.7888 27.8441 20.2213 27.4001 20.5256C26.9561 20.8299 26.4341 20.9923 25.9001 20.9923H2.5001C2.2614 20.9923 2.03248 21.0896 1.8637 21.2627C1.69492 21.4358 1.6001 21.6706 1.6001 21.9154C1.6001 22.1602 1.69492 22.395 1.8637 22.5681C2.03248 22.7412 2.2614 22.8385 2.5001 22.8385H20.0501C20.6468 22.8397 21.2187 23.084 21.6398 23.5176C22.0609 23.9513 22.2968 24.5387 22.2956 25.1508C22.2944 25.7628 22.0562 26.3493 21.6334 26.7812C21.2106 27.2131 20.6378 27.4551 20.0411 27.4538C19.5036 27.4542 18.9832 27.2594 18.5724 26.9039C18.1615 26.5484 17.8867 26.0552 17.7965 25.5117L17.7875 25.4563C17.7713 25.3339 17.7313 25.216 17.6699 25.1097C17.6085 25.0034 17.5269 24.9108 17.43 24.8375C17.333 24.7641 17.2227 24.7115 17.1056 24.6826C16.9884 24.6538 16.8668 24.6494 16.748 24.6697C16.6291 24.69 16.5155 24.7345 16.4137 24.8007C16.312 24.8668 16.2242 24.9533 16.1557 25.0549C16.0871 25.1565 16.0391 25.2711 16.0145 25.3921C15.99 25.5131 15.9894 25.6379 16.0127 25.7591L16.0217 25.8145C16.1817 26.7891 16.6733 27.674 17.4091 28.3121C18.145 28.9502 19.0775 29.3002 20.0411 29.3C21.1162 29.3005 22.1475 28.8633 22.9086 28.0845C23.6696 27.3056 24.0982 26.2488 24.1001 25.1462C24.1001 24.2914 23.8481 23.4975 23.4179 22.8385H25.9001C27.0936 22.8385 28.2382 22.3522 29.0821 21.4866C29.926 20.6211 30.4001 19.4472 30.4001 18.2231C30.4001 16.999 29.926 15.8251 29.0821 14.9595C28.2382 14.094 27.0936 13.6077 25.9001 13.6077Z" fill="#101828"></path>
    <path d="M15.5537 5.3L15.6824 0.301658L15.6175 0.299985L15.5526 0.3L15.5537 5.3ZM9.8225 10.1185L4.91522 9.15996L4.9137 9.16781L9.8225 10.1185ZM9.7181 10.6575L14.5907 11.779L14.6103 11.6939L14.6269 11.6082L9.7181 10.6575ZM11.4821 11.0194L6.57702 10.0497L6.55947 10.1385L6.54515 10.2279L11.4821 11.0194ZM11.5883 10.4822L6.68357 9.51074L6.68322 9.51252L11.5883 10.4822ZM19.6001 11.2982L24.6001 11.2982L24.6001 11.2862L19.6001 11.2982ZM15.5501 15.4538V20.4538L15.5524 20.4538L15.5501 15.4538ZM1.6001 16.3769H-3.3999H1.6001ZM15.5501 17.3V22.3H15.6129L15.6757 22.2984L15.5501 17.3ZM23.2001 18.2231H28.2001H23.2001ZM1.6001 21.9154H-3.3999H1.6001ZM20.0501 22.8385L20.0604 17.8385H20.0501V22.8385ZM20.0411 27.4538L20.0514 22.4538L20.0374 22.4538L20.0411 27.4538ZM17.7965 25.5117L12.8612 26.3137L12.8626 26.3218L12.8639 26.3299L17.7965 25.5117ZM17.7875 25.4563L12.8306 26.1112L12.8403 26.1849L12.8522 26.2583L17.7875 25.4563ZM16.0127 25.7591L20.948 24.9571L20.9363 24.8853L20.9225 24.8138L16.0127 25.7591ZM16.0217 25.8145L11.0864 26.6164L11.0878 26.6246L16.0217 25.8145ZM20.0411 29.3L20.0434 24.3H20.0401L20.0411 29.3ZM24.1001 25.1462L29.1001 25.1548V25.1462H24.1001ZM23.4179 22.8385V17.8385H14.1834L19.2309 25.5714L23.4179 22.8385ZM15.5526 0.3C13.0115 0.300581 10.5664 1.2047 8.63104 2.8318L15.0663 10.4861C15.2206 10.3563 15.3939 10.3 15.5548 10.3L15.5526 0.3ZM8.63104 2.8318C6.69848 4.45659 5.39622 6.69742 4.91523 9.15996L14.7298 11.077C14.7795 10.8222 14.9092 10.6181 15.0663 10.4861L8.63104 2.8318ZM4.9137 9.16781L4.8093 9.70689L14.6269 11.6082L14.7313 11.0691L4.9137 9.16781ZM4.84549 9.53609C4.67081 10.295 4.64704 11.0807 4.7751 11.8482L14.6387 10.2024C14.726 10.7257 14.7099 11.2612 14.5907 11.779L4.84549 9.53609ZM4.7751 11.8482C4.90317 12.6158 5.18148 13.3551 5.59869 14.0215L14.0747 8.71519C14.3614 9.17311 14.5514 9.67908 14.6387 10.2024L4.7751 11.8482ZM5.59869 14.0215C6.01607 14.6882 6.56559 15.2707 7.22027 15.7288L12.9534 7.53544C13.4085 7.85388 13.7879 8.25698 14.0747 8.71519L5.59869 14.0215ZM7.22027 15.7288C7.8753 16.1872 8.6206 16.5103 9.4128 16.6728L11.4222 6.87674C11.9775 6.99065 12.4979 7.21674 12.9534 7.53544L7.22027 15.7288ZM9.4128 16.6728C10.2052 16.8353 11.0224 16.8326 11.8136 16.6648L9.73893 6.88235C10.2936 6.76472 10.8668 6.7628 11.4222 6.87674L9.4128 16.6728ZM11.8136 16.6648C12.6047 16.497 13.3476 16.169 13.9995 15.7065L8.21267 7.55095C8.6658 7.22943 9.18448 6.99994 9.73893 6.88235L11.8136 16.6648ZM13.9995 15.7065C14.6509 15.2442 15.1965 14.6583 15.6095 13.9891L7.09948 8.73747C7.38327 8.27761 7.75987 7.87224 8.21267 7.55095L13.9995 15.7065ZM15.6095 13.9891C16.0223 13.3201 16.2959 12.5792 16.419 11.8109L6.54515 10.2279C6.62912 9.70408 6.81587 9.19706 7.09948 8.73747L15.6095 13.9891ZM16.3872 11.989L16.4934 11.4518L6.68322 9.51252L6.57702 10.0497L16.3872 11.989ZM16.493 11.4536C16.4584 11.6284 16.3561 11.8139 16.1685 11.9558L10.1338 3.98196C8.33339 5.34455 7.11722 7.32122 6.68357 9.51074L16.493 11.4536ZM16.1685 11.9558C15.9772 12.1006 15.7192 12.1805 15.4469 12.1528L16.4602 2.20422C14.1933 1.97334 11.938 2.61652 10.1338 3.98196L16.1685 11.9558ZM15.4469 12.1528C15.1758 12.1251 14.9515 11.9975 14.8057 11.8327L22.2936 5.20473C20.8004 3.51779 18.726 2.43499 16.4602 2.20422L15.4469 12.1528ZM14.8057 11.8327C14.6628 11.6713 14.6005 11.4838 14.6001 11.3101L24.6001 11.2862C24.5948 9.05664 23.7839 6.88831 22.2936 5.20473L14.8057 11.8327ZM14.6001 11.2982C14.6001 11.1146 14.67 10.9138 14.8332 10.7463L21.9948 17.7257C23.6769 15.9997 24.6001 13.6854 24.6001 11.2982L14.6001 11.2982ZM14.8332 10.7463C15.0006 10.5745 15.255 10.454 15.5478 10.4538L15.5524 20.4538C17.9938 20.4527 20.3084 19.4561 21.9948 17.7257L14.8332 10.7463ZM15.5501 10.4538H2.5001V20.4538H15.5501V10.4538ZM2.5001 10.4538C0.893894 10.4538 -0.620146 11.1094 -1.7163 12.2337L5.4437 19.2147C4.68511 19.9927 3.62891 20.4538 2.5001 20.4538V10.4538ZM-1.7163 12.2337C-2.80825 13.3537 -3.3999 14.8463 -3.3999 16.3769H6.6001C6.6001 17.4179 6.19809 18.441 5.4437 19.2147L-1.7163 12.2337ZM-3.3999 16.3769C-3.3999 17.9075 -2.80825 19.4002 -1.7163 20.5201L5.4437 13.5391C6.19809 14.3129 6.6001 15.3359 6.6001 16.3769H-3.3999ZM-1.7163 20.5201C-0.620146 21.6444 0.893894 22.3 2.5001 22.3V12.3C3.62891 12.3 4.68511 12.7611 5.4437 13.5391L-1.7163 20.5201ZM2.5001 22.3H15.5501V12.3H2.5001V22.3ZM15.6757 22.2984C18.5466 22.2263 21.2496 21.0058 23.2163 18.9392L15.9724 12.0453C15.8061 12.22 15.6064 12.297 15.4245 12.3016L15.6757 22.2984ZM23.2163 18.9392C25.1791 16.8768 26.2577 14.1345 26.2586 11.3033L16.2586 11.3003C16.2585 11.6011 16.1426 11.8665 15.9724 12.0453L23.2163 18.9392ZM26.2586 11.3033C26.2594 8.47209 25.1825 5.7292 23.2209 3.66553L15.9728 10.555C16.143 10.734 16.2587 10.9995 16.2586 11.3003L26.2586 11.3033ZM23.2209 3.66553C21.2555 1.5978 18.5533 0.375608 15.6824 0.301658L15.4249 10.2983C15.6068 10.303 15.8066 10.3801 15.9728 10.555L23.2209 3.66553ZM25.9001 8.60769C23.3391 8.60769 20.9094 9.65231 19.1381 11.469L26.2981 18.45C26.2147 18.5356 26.0741 18.6077 25.9001 18.6077V8.60769ZM19.1381 11.469C17.371 13.2814 16.4001 15.7132 16.4001 18.2231H26.4001C26.4001 18.2848 26.3774 18.3687 26.2981 18.45L19.1381 11.469ZM16.4001 18.2231C16.4001 19.7537 16.9917 21.2463 18.0837 22.3663L25.2437 15.3853C25.9981 16.159 26.4001 17.1821 26.4001 18.2231H16.4001ZM18.0837 22.3663C19.1799 23.4906 20.6939 24.1462 22.3001 24.1462V14.1462C23.4289 14.1462 24.4851 14.6072 25.2437 15.3853L18.0837 22.3663ZM22.3001 24.1462C23.9063 24.1462 25.4203 23.4906 26.5165 22.3663L19.3565 15.3853C20.1151 14.6072 21.1713 14.1462 22.3001 14.1462V24.1462ZM26.5165 22.3663C27.6085 21.2463 28.2001 19.7537 28.2001 18.2231H18.2001C18.2001 17.1821 18.6021 16.159 19.3565 15.3853L26.5165 22.3663ZM28.2001 18.2231C28.2001 18.6365 28.0812 19.0506 27.8445 19.4139L19.4657 13.9553C18.6357 15.2293 18.2001 16.7142 18.2001 18.2231H28.2001ZM27.8445 19.4139C27.607 19.7784 27.2563 20.082 26.8219 20.2666L22.9118 11.0627C21.4907 11.6665 20.2966 12.68 19.4657 13.9553L27.8445 19.4139ZM26.8219 20.2666C26.386 20.4517 25.8988 20.5023 25.4274 20.4061L27.4263 10.608C25.9074 10.2981 24.3344 10.4583 22.9118 11.0627L26.8219 20.2666ZM25.4274 20.4061C24.9568 20.3101 24.5424 20.0766 24.2293 19.7554L31.3893 12.7744C30.321 11.6787 28.9444 10.9177 27.4263 10.608L25.4274 20.4061ZM24.2293 19.7554C23.9175 19.4357 23.7189 19.0434 23.6397 18.6348L33.4568 16.7309C33.1691 15.2479 32.4563 13.8688 31.3893 12.7744L24.2293 19.7554ZM23.6397 18.6348C23.5605 18.2267 23.6001 17.8024 23.7584 17.4105L33.0308 21.1552C33.5978 19.7512 33.7443 18.2133 33.4568 16.7309L23.6397 18.6348ZM23.7584 17.4105C23.9171 17.0175 24.1941 16.6613 24.5736 16.4012L30.2266 24.65C31.4942 23.7813 32.4633 22.5602 33.0308 21.1552L23.7584 17.4105ZM24.5736 16.4012C24.9548 16.14 25.4166 15.9923 25.9001 15.9923V25.9923C27.4516 25.9923 28.9575 25.5198 30.2266 24.65L24.5736 16.4012ZM25.9001 15.9923H2.5001V25.9923H25.9001V15.9923ZM2.5001 15.9923C0.893894 15.9923 -0.620146 16.6479 -1.7163 17.7722L5.4437 24.7532C4.68511 25.5312 3.62891 25.9923 2.5001 25.9923V15.9923ZM-1.7163 17.7722C-2.80825 18.8921 -3.3999 20.3848 -3.3999 21.9154H6.6001C6.6001 22.9564 6.19809 23.9794 5.4437 24.7532L-1.7163 17.7722ZM-3.3999 21.9154C-3.3999 23.446 -2.80825 24.9386 -1.7163 26.0586L5.4437 19.0776C6.19809 19.8513 6.6001 20.8744 6.6001 21.9154H-3.3999ZM-1.7163 26.0586C-0.620146 27.1829 0.893894 27.8385 2.5001 27.8385V17.8385C3.62891 17.8385 4.68511 18.2996 5.4437 19.0776L-1.7163 26.0586ZM2.5001 27.8385H20.0501V17.8385H2.5001V27.8385ZM20.0398 27.8385C19.2691 27.8369 18.557 27.5202 18.0528 27.001L25.2267 20.0343C23.8803 18.6478 22.0246 17.8425 20.0604 17.8385L20.0398 27.8385ZM18.0528 27.001C17.5528 26.486 17.2943 25.8148 17.2956 25.141L27.2956 25.1605C27.2993 23.2627 26.569 21.4165 25.2267 20.0343L18.0528 27.001ZM17.2956 25.141C17.2969 24.4672 17.558 23.7968 18.0604 23.2836L25.2064 30.2789C26.5544 28.9018 27.2919 27.0584 27.2956 25.1605L17.2956 25.141ZM18.0604 23.2836C18.567 22.7661 19.2806 22.4523 20.0514 22.4539L20.0308 32.4538C21.9951 32.4579 23.8542 31.6602 25.2064 30.2789L18.0604 23.2836ZM20.0374 22.4538C20.7169 22.4533 21.356 22.7006 21.844 23.1228L15.3008 30.685C16.6105 31.8182 18.2903 32.4551 20.0448 32.4538L20.0374 22.4538ZM21.844 23.1228C22.329 23.5425 22.6312 24.1035 22.7291 24.6935L12.8639 26.3299C13.1421 28.0069 13.994 29.5543 15.3008 30.685L21.844 23.1228ZM22.7318 24.7097L22.7228 24.6543L12.8522 26.2583L12.8612 26.3137L22.7318 24.7097ZM22.7444 24.8014C22.6428 24.0324 22.3911 23.2866 21.9994 22.6085L13.3405 27.6109C13.0716 27.1454 12.8998 26.6354 12.8306 26.1112L22.7444 24.8014ZM21.9994 22.6085C21.6074 21.9301 21.0816 21.3305 20.4471 20.8504L14.4129 28.8246C13.9722 28.4911 13.6096 28.0767 13.3405 27.6109L21.9994 22.6085ZM20.4471 20.8504C19.8122 20.37 19.0826 20.0199 18.3 19.8274L15.9111 29.5379C15.3628 29.403 14.8538 29.1583 14.4129 28.8246L20.4471 20.8504ZM18.3 19.8274C17.5172 19.6348 16.7028 19.6052 15.9072 19.7409L17.5888 29.5985C17.0308 29.6937 16.4597 29.6728 15.9111 29.5379L18.3 19.8274ZM15.9072 19.7409C15.1117 19.8766 14.3573 20.1737 13.688 20.609L19.1395 28.9924C18.6737 29.2953 18.1466 29.5033 17.5888 29.5985L15.9072 19.7409ZM13.688 20.609C13.0191 21.044 12.4508 21.6066 12.0113 22.2576L20.3 27.8521C19.9977 28.3 19.6049 28.6897 19.1395 28.9924L13.688 20.609ZM12.0113 22.2576C11.5721 22.9084 11.269 23.6364 11.1145 24.3974L20.9146 26.3868C20.8092 26.9059 20.6021 27.4045 20.3 27.8521L12.0113 22.2576ZM11.1145 24.3974C10.96 25.1582 10.9561 25.9421 11.1029 26.7044L20.9225 24.8138C21.0226 25.3336 21.0199 25.8679 20.9146 26.3868L11.1145 24.3974ZM11.0774 26.5611L11.0864 26.6164L20.957 25.0125L20.948 24.9571L11.0774 26.5611ZM11.0878 26.6246C11.4341 28.734 12.5018 30.6747 14.1334 32.0895L20.6849 24.5346C20.8448 24.6732 20.9293 24.8441 20.9556 25.0043L11.0878 26.6246ZM14.1334 32.0895C15.7679 33.507 17.8605 34.3004 20.0421 34.3L20.0401 24.3C20.2945 24.2999 20.5221 24.3933 20.6849 24.5346L14.1334 32.0895ZM20.0388 34.3C22.4802 34.3011 24.796 33.3071 26.4847 31.5789L19.3325 24.59C19.4991 24.4195 19.7522 24.2999 20.0434 24.3L20.0388 34.3ZM26.4847 31.5789C28.1693 29.855 29.096 27.5422 29.1001 25.1548L19.1001 25.1375C19.1004 24.9555 19.17 24.7562 19.3325 24.59L26.4847 31.5789ZM29.1001 25.1462C29.1001 23.2972 28.5525 21.5573 27.6049 20.1055L19.2309 25.5714C19.1437 25.4378 19.1001 25.2856 19.1001 25.1462H29.1001ZM23.4179 27.8385H25.9001V17.8385H23.4179V27.8385ZM25.9001 27.8385C28.4611 27.8385 30.8908 26.7938 32.6621 24.9771L25.5021 17.9961C25.5855 17.9106 25.7261 17.8385 25.9001 17.8385V27.8385ZM32.6621 24.9771C34.4292 23.1648 35.4001 20.733 35.4001 18.2231H25.4001C25.4001 18.1613 25.4228 18.0774 25.5021 17.9961L32.6621 24.9771ZM35.4001 18.2231C35.4001 15.7132 34.4292 13.2814 32.6621 11.469L25.5021 18.45C25.4228 18.3687 25.4001 18.2848 25.4001 18.2231H35.4001ZM32.6621 11.469C30.8908 9.65231 28.4611 8.60769 25.9001 8.60769V18.6077C25.7261 18.6077 25.5855 18.5356 25.5021 18.45L32.6621 11.469Z"  mask="url(#path-1-inside-1_3_2792)"></path>
  </symbol>
  <symbol fill="none" xmlns="http://www.w3.org/2000/svg" viewBox="0 0 16 16" id="star">
    <g clip-path="url(#clip0_1_2567)">
      <path d="M6.20021 4.69703L8 1.28579L9.79979 4.69703C9.95896 4.9987 10.2491 5.20947 10.5851 5.26762L14.3856 5.92519L11.6975 8.69103C11.4598 8.93563 11.3489 9.27666 11.3975 9.61427L11.9465 13.4319L8.48537 11.7301C8.17929 11.5795 7.82071 11.5795 7.51463 11.7301L4.05348 13.4319L4.6025 9.61427C4.65105 9.27666 4.54024 8.93563 4.30252 8.69103L1.6144 5.92519L5.41486 5.26762C5.75095 5.20947 6.04104 4.9987 6.20021 4.69703Z" fill="#FFC531" stroke="#FFC531" stroke-width="1.2"></path>
    </g>
    <defs>
      <clipPath id="clip0_1_2567">
        <rect width="16" height="16" fill="white"></rect>
      </clipPath>
    </defs>
  </symbol>
  <symbol fill="#000000" version="1.1" id="bathroom" xmlns="http://www.w3.org/2000/svg" xmlns:xlink="http://www.w3.org/1999/xlink" xml:space="preserve" viewBox="0 0 512 512">
    <g transform="translate(1 1)">
      <g>
        <g>
          <path d="M485.4,272.067h-8.533v-179.2c0-42.667-34.133-76.8-76.8-76.8c-37.77,0-64.935,28.006-67.974,69.041
				c-19.829,3.748-34.426,20.826-34.426,41.892c0,5.12,3.413,8.533,8.533,8.533h68.267c5.12,0,8.533-3.413,8.533-8.533
				c0-20.833-14.274-37.769-33.767-41.767c2.55-27.116,18.836-52.1,50.834-52.1c33.28,0,59.733,26.453,59.733,59.733v179.2H202.975
				c-3.86-19.681-20.878-34.133-41.841-34.133c-8.533-10.24-20.48-17.067-34.133-17.067c-16.213,0-30.72,9.387-37.547,23.04
				c-6.827-3.413-14.507-5.973-22.187-5.973c-20.963,0-37.981,14.452-41.841,34.133H24.6c-14.507,0-25.6,11.093-25.6,25.6
				c0,14.507,11.093,25.6,25.6,25.6h10.255l23.025,91.307c6.827,26.453,30.72,45.227,58.027,45.227h6.827l-11.093,22.187
				c-2.56,4.267-0.853,9.387,3.413,11.093c0.853,0.853,2.56,0.853,3.413,0.853c3.413,0,5.973-1.707,7.68-4.267L141.08,459.8h236.8
				l14.507,29.013c1.707,3.413,4.267,5.12,7.68,5.12c1.707,0,2.56,0,3.413-1.707c3.413-1.707,5.12-6.827,3.413-11.093
				l-10.689-21.379c26.419-0.938,49.266-19.39,55.916-44.328l23.24-92.16h10.04c14.507,0,25.6-11.093,25.6-25.6
				C511,283.16,499.907,272.067,485.4,272.067z M365.08,118.467h-48.64c3.413-10.24,13.653-17.067,24.747-17.067
				S361.667,108.227,365.08,118.467z M67.267,255c7.68,0,14.507,3.413,20.48,9.387c1.707,2.56,5.12,3.413,8.533,2.56
				s5.12-3.413,5.973-6.827c2.56-12.8,12.8-22.187,25.6-22.187c9.387,0,17.92,4.267,22.187,12.8c1.707,3.413,5.973,5.12,9.387,4.267
				c0.853,0,1.707,0,2.56,0c11.093,0,20.48,6.827,23.893,17.067H43.373C46.787,261.827,56.173,255,67.267,255z M436.76,410.307
				c-5.12,18.773-22.187,32.427-41.813,32.427H116.76c-19.627,0-36.693-13.653-41.813-32.427l-22.187-87.04h404.48L436.76,410.307z
				 M485.4,306.2h-17.067H41.667H24.6c-5.12,0-8.533-3.413-8.533-8.533s3.413-8.533,8.533-8.533h8.533h162.133H485.4
				c5.12,0,8.533,3.413,8.533,8.533S490.52,306.2,485.4,306.2z"></path>
          <path d="M306.2,173.933c5.12,0,8.533-3.413,8.533-8.533v-4.267c0-5.12-3.413-8.533-8.533-8.533s-8.533,3.413-8.533,8.533v4.267
				C297.667,170.52,301.08,173.933,306.2,173.933z"></path>
          <path d="M306.2,213.187c5.12,0,8.533-4.267,8.533-8.533v-9.387c0-5.12-3.413-8.533-8.533-8.533s-8.533,3.413-8.533,8.533v9.387
				C297.667,209.773,301.08,213.187,306.2,213.187z"></path>
          <path d="M306.2,246.467c5.12,0,8.533-3.413,8.533-8.533v-4.267c0-5.12-3.413-8.533-8.533-8.533s-8.533,3.413-8.533,8.533v4.267
				C297.667,243.053,301.08,246.467,306.2,246.467z"></path>
          <path d="M340.333,173.933c5.12,0,8.533-3.413,8.533-8.533v-4.267c0-5.12-3.413-8.533-8.533-8.533
				c-5.12,0-8.533,3.413-8.533,8.533v4.267C331.8,170.52,335.213,173.933,340.333,173.933z"></path>
          <path d="M331.8,204.653c0,5.12,3.413,8.533,8.533,8.533c5.12,0,8.533-4.267,8.533-8.533v-9.387c0-5.12-3.413-8.533-8.533-8.533
				c-5.12,0-8.533,3.413-8.533,8.533V204.653z"></path>
          <path d="M331.8,237.933c0,5.12,3.413,8.533,8.533,8.533c5.12,0,8.533-3.413,8.533-8.533v-4.267c0-5.12-3.413-8.533-8.533-8.533
				c-5.12,0-8.533,3.413-8.533,8.533V237.933z"></path>
          <path d="M374.467,173.933c5.12,0,8.533-3.413,8.533-8.533v-4.267c0-5.12-3.413-8.533-8.533-8.533s-8.533,3.413-8.533,8.533v4.267
				C365.933,170.52,369.347,173.933,374.467,173.933z"></path>
          <path d="M365.933,204.653c0,5.12,3.413,8.533,8.533,8.533S383,208.92,383,204.653v-9.387c0-5.12-3.413-8.533-8.533-8.533
				s-8.533,3.413-8.533,8.533V204.653z"></path>
          <path d="M365.933,237.933c0,5.12,3.413,8.533,8.533,8.533s8.533-3.413,8.533-8.533v-4.267c0-5.12-3.413-8.533-8.533-8.533
				s-8.533,3.413-8.533,8.533V237.933z"></path>
        </g>
      </g>
    </g>
  </symbol>
</svg>